%FSLAX45Y45*%
G04 Gerber Fmt 4.5, Leading zero omitted, Abs format (unit mm)*
G04 Created by KiCad (PCBNEW 6.0.5) date 2022-05-12 16:15:44*
%MOMM*%
%LPD*%
G01*
G04 APERTURE LIST*
%TA.AperFunction,Profile*%
%ADD10C,0.100000*%
%TD*%
%ADD11C,0.200000*%
G04 APERTURE END LIST*
D10*
X9779000Y-7874000D02*
X9144000Y-7874000D01*
X9017000Y-4445000D02*
G75*
G03*
X8763000Y-4699000I0J-254000D01*
G01*
X16510000Y-3937000D02*
G75*
G03*
X16256000Y-3683000I-254000J0D01*
G01*
X10160000Y-3683000D02*
G75*
G03*
X9906000Y-3937000I0J-254000D01*
G01*
X10160000Y-9017000D02*
X10160000Y-8255000D01*
X16129000Y-9398000D02*
G75*
G03*
X16510000Y-9017000I0J381000D01*
G01*
X8763000Y-7493000D02*
G75*
G03*
X9144000Y-7874000I381000J0D01*
G01*
X8763000Y-7493000D02*
X8763000Y-4699000D01*
X16129000Y-9398000D02*
X10541000Y-9398000D01*
X10160000Y-8255000D02*
G75*
G03*
X9779000Y-7874000I-381000J0D01*
G01*
X16510000Y-9017000D02*
X16510000Y-3937000D01*
X10160000Y-9017000D02*
G75*
G03*
X10541000Y-9398000I381000J0D01*
G01*
X9017000Y-4445000D02*
X9906000Y-4445000D01*
X10160000Y-3683000D02*
X16256000Y-3683000D01*
X9906000Y-4445000D02*
X9906000Y-3937000D01*
D11*
X9015619Y-9713476D02*
X9015619Y-9513476D01*
X9063238Y-9513476D01*
X9091810Y-9523000D01*
X9110857Y-9542048D01*
X9120381Y-9561095D01*
X9129905Y-9599190D01*
X9129905Y-9627762D01*
X9120381Y-9665857D01*
X9110857Y-9684905D01*
X9091810Y-9703952D01*
X9063238Y-9713476D01*
X9015619Y-9713476D01*
X9215619Y-9713476D02*
X9215619Y-9580143D01*
X9215619Y-9618238D02*
X9225143Y-9599190D01*
X9234667Y-9589667D01*
X9253714Y-9580143D01*
X9272762Y-9580143D01*
X9339429Y-9713476D02*
X9339429Y-9580143D01*
X9339429Y-9513476D02*
X9329905Y-9523000D01*
X9339429Y-9532524D01*
X9348952Y-9523000D01*
X9339429Y-9513476D01*
X9339429Y-9532524D01*
X9463238Y-9713476D02*
X9444190Y-9703952D01*
X9434667Y-9684905D01*
X9434667Y-9513476D01*
X9568000Y-9713476D02*
X9548952Y-9703952D01*
X9539429Y-9684905D01*
X9539429Y-9513476D01*
X9796571Y-9713476D02*
X9796571Y-9513476D01*
X9863238Y-9656333D01*
X9929905Y-9513476D01*
X9929905Y-9713476D01*
X10110857Y-9713476D02*
X10110857Y-9608714D01*
X10101333Y-9589667D01*
X10082286Y-9580143D01*
X10044190Y-9580143D01*
X10025143Y-9589667D01*
X10110857Y-9703952D02*
X10091810Y-9713476D01*
X10044190Y-9713476D01*
X10025143Y-9703952D01*
X10015619Y-9684905D01*
X10015619Y-9665857D01*
X10025143Y-9646810D01*
X10044190Y-9637286D01*
X10091810Y-9637286D01*
X10110857Y-9627762D01*
X10206095Y-9580143D02*
X10206095Y-9780143D01*
X10206095Y-9589667D02*
X10225143Y-9580143D01*
X10263238Y-9580143D01*
X10282286Y-9589667D01*
X10291810Y-9599190D01*
X10301333Y-9618238D01*
X10301333Y-9675381D01*
X10291810Y-9694429D01*
X10282286Y-9703952D01*
X10263238Y-9713476D01*
X10225143Y-9713476D01*
X10206095Y-9703952D01*
X10387048Y-9694429D02*
X10396571Y-9703952D01*
X10387048Y-9713476D01*
X10377524Y-9703952D01*
X10387048Y-9694429D01*
X10387048Y-9713476D01*
X10387048Y-9589667D02*
X10396571Y-9599190D01*
X10387048Y-9608714D01*
X10377524Y-9599190D01*
X10387048Y-9589667D01*
X10387048Y-9608714D01*
M02*
