G04 #@! TF.GenerationSoftware,KiCad,Pcbnew,6.0.5*
G04 #@! TF.CreationDate,2022-05-12T16:14:40+02:00*
G04 #@! TF.ProjectId,active3-rpi-hub75-adapter,61637469-7665-4332-9d72-70692d687562,rev?*
G04 #@! TF.SameCoordinates,Original*
G04 #@! TF.FileFunction,Paste,Top*
G04 #@! TF.FilePolarity,Positive*
%FSLAX46Y46*%
G04 Gerber Fmt 4.6, Leading zero omitted, Abs format (unit mm)*
G04 Created by KiCad (PCBNEW 6.0.5) date 2022-05-12 16:14:40*
%MOMM*%
%LPD*%
G01*
G04 APERTURE LIST*
G04 Aperture macros list*
%AMRoundRect*
0 Rectangle with rounded corners*
0 $1 Rounding radius*
0 $2 $3 $4 $5 $6 $7 $8 $9 X,Y pos of 4 corners*
0 Add a 4 corners polygon primitive as box body*
4,1,4,$2,$3,$4,$5,$6,$7,$8,$9,$2,$3,0*
0 Add four circle primitives for the rounded corners*
1,1,$1+$1,$2,$3*
1,1,$1+$1,$4,$5*
1,1,$1+$1,$6,$7*
1,1,$1+$1,$8,$9*
0 Add four rect primitives between the rounded corners*
20,1,$1+$1,$2,$3,$4,$5,0*
20,1,$1+$1,$4,$5,$6,$7,0*
20,1,$1+$1,$6,$7,$8,$9,0*
20,1,$1+$1,$8,$9,$2,$3,0*%
G04 Aperture macros list end*
%ADD10RoundRect,0.250000X0.475000X-0.250000X0.475000X0.250000X-0.475000X0.250000X-0.475000X-0.250000X0*%
%ADD11RoundRect,0.250000X-0.262500X-0.450000X0.262500X-0.450000X0.262500X0.450000X-0.262500X0.450000X0*%
%ADD12RoundRect,0.250000X0.650000X-0.325000X0.650000X0.325000X-0.650000X0.325000X-0.650000X-0.325000X0*%
%ADD13RoundRect,0.150000X-0.150000X0.875000X-0.150000X-0.875000X0.150000X-0.875000X0.150000X0.875000X0*%
G04 APERTURE END LIST*
D10*
X128905000Y-59370000D03*
X128905000Y-57470000D03*
X145415000Y-59370000D03*
X145415000Y-57470000D03*
X161925000Y-59370000D03*
X161925000Y-57470000D03*
D11*
X156567500Y-46990000D03*
X158392500Y-46990000D03*
D12*
X92080000Y-50370000D03*
X92080000Y-47420000D03*
D13*
X126365000Y-49960000D03*
X125095000Y-49960000D03*
X123825000Y-49960000D03*
X122555000Y-49960000D03*
X121285000Y-49960000D03*
X120015000Y-49960000D03*
X118745000Y-49960000D03*
X117475000Y-49960000D03*
X116205000Y-49960000D03*
X114935000Y-49960000D03*
X114935000Y-59260000D03*
X116205000Y-59260000D03*
X117475000Y-59260000D03*
X118745000Y-59260000D03*
X120015000Y-59260000D03*
X121285000Y-59260000D03*
X122555000Y-59260000D03*
X123825000Y-59260000D03*
X125095000Y-59260000D03*
X126365000Y-59260000D03*
X142875000Y-49960000D03*
X141605000Y-49960000D03*
X140335000Y-49960000D03*
X139065000Y-49960000D03*
X137795000Y-49960000D03*
X136525000Y-49960000D03*
X135255000Y-49960000D03*
X133985000Y-49960000D03*
X132715000Y-49960000D03*
X131445000Y-49960000D03*
X131445000Y-59260000D03*
X132715000Y-59260000D03*
X133985000Y-59260000D03*
X135255000Y-59260000D03*
X136525000Y-59260000D03*
X137795000Y-59260000D03*
X139065000Y-59260000D03*
X140335000Y-59260000D03*
X141605000Y-59260000D03*
X142875000Y-59260000D03*
X159385000Y-49960000D03*
X158115000Y-49960000D03*
X156845000Y-49960000D03*
X155575000Y-49960000D03*
X154305000Y-49960000D03*
X153035000Y-49960000D03*
X151765000Y-49960000D03*
X150495000Y-49960000D03*
X149225000Y-49960000D03*
X147955000Y-49960000D03*
X147955000Y-59260000D03*
X149225000Y-59260000D03*
X150495000Y-59260000D03*
X151765000Y-59260000D03*
X153035000Y-59260000D03*
X154305000Y-59260000D03*
X155575000Y-59260000D03*
X156845000Y-59260000D03*
X158115000Y-59260000D03*
X159385000Y-59260000D03*
M02*
