M48
; DRILL file {KiCad 6.0.5} date Thu 12 May 2022 04:15:25 PM CEST
; FORMAT={-:-/ absolute / metric / decimal}
; #@! TF.CreationDate,2022-05-12T16:15:25+02:00
; #@! TF.GenerationSoftware,Kicad,Pcbnew,6.0.5
; #@! TF.FileFunction,Plated,1,2,PTH
FMAT,2
METRIC
; #@! TA.AperFunction,Plated,PTH,ViaDrill
T1C0.635
; #@! TA.AperFunction,Plated,PTH,ViaDrill
T2C0.800
; #@! TA.AperFunction,Plated,PTH,ComponentDrill
T3C0.800
; #@! TA.AperFunction,Plated,PTH,ComponentDrill
T4C0.950
; #@! TA.AperFunction,Plated,PTH,ComponentDrill
T5C1.000
; #@! TA.AperFunction,Plated,PTH,ComponentDrill
T6C1.016
; #@! TA.AperFunction,Plated,PTH,ComponentDrill
T7C1.200
; #@! TA.AperFunction,Plated,PTH,ComponentDrill
T8C3.048
%
G90
G05
T1
X94.283Y-51.724
X100.738Y-51.269
X110.592Y-47.482
X111.262Y-70.756
X112.367Y-56.546
X112.845Y-48.347
X117.995Y-46.674
X119.597Y-68.986
X119.892Y-37.567
X120.131Y-45.948
X122.291Y-61.516
X122.853Y-45.987
X123.424Y-61.017
X124.207Y-70.586
X124.447Y-41.935
X124.656Y-47.364
X127.216Y-61.137
X127.35Y-51.969
X128.738Y-47.706
X129.323Y-55.547
X130.232Y-49.224
X130.988Y-65.027
X132.684Y-67.07
X133.485Y-48.235
X134.669Y-62.128
X135.04Y-47.898
X135.407Y-61.003
X137.152Y-45.724
X137.45Y-61.456
X138.275Y-48.218
X138.43Y-45.74
X148.112Y-54.562
X149.834Y-37.612
X149.86Y-46.99
X150.009Y-56.393
X150.028Y-61.067
X150.055Y-52.274
X152.431Y-51.605
X152.782Y-47.058
X154.631Y-51.691
X155.776Y-51.875
X159.619Y-47.428
T2
X159.205Y-52.605
T3
X99.06Y-47.577
X99.06Y-50.077
T4
X99.805Y-55.96
X99.805Y-58.46
X99.805Y-60.96
X99.805Y-63.46
X99.805Y-65.96
X158.115Y-79.455
X158.115Y-81.955
X158.115Y-84.455
T5
X106.72Y-50.165
X109.22Y-50.165
X110.49Y-64.516
X110.49Y-67.056
X113.03Y-64.516
X113.03Y-67.056
X114.935Y-74.94
X114.935Y-90.18
X115.57Y-64.516
X115.57Y-67.056
X117.475Y-74.94
X117.475Y-90.18
X118.11Y-64.516
X118.11Y-67.056
X120.015Y-74.94
X120.015Y-90.18
X120.65Y-64.516
X120.65Y-67.056
X122.555Y-74.94
X122.555Y-90.18
X123.19Y-64.516
X123.19Y-67.056
X125.095Y-74.94
X125.095Y-90.18
X125.73Y-64.516
X125.73Y-67.056
X127.635Y-74.94
X127.635Y-90.18
X128.27Y-64.516
X128.27Y-67.056
X130.175Y-74.94
X130.175Y-90.18
X132.715Y-74.94
X132.715Y-90.18
X135.255Y-74.94
X135.255Y-90.18
X137.795Y-74.94
X137.795Y-90.18
X139.7Y-64.77
X139.7Y-67.31
X140.335Y-74.94
X140.335Y-90.18
X142.24Y-64.77
X142.24Y-67.31
X142.875Y-74.94
X142.875Y-90.18
X144.78Y-64.77
X144.78Y-67.31
X145.415Y-74.94
X145.415Y-90.18
X147.32Y-64.77
X147.32Y-67.31
X147.955Y-74.94
X147.955Y-90.18
X149.86Y-64.77
X149.86Y-67.31
X150.495Y-74.94
X150.495Y-90.18
X152.4Y-64.77
X152.4Y-67.31
X154.94Y-64.77
X154.94Y-67.31
X157.48Y-64.77
X157.48Y-67.31
T6
X90.805Y-62.865
X90.805Y-65.405
X90.805Y-67.945
X93.345Y-62.865
X93.345Y-65.405
X93.345Y-67.945
X107.95Y-40.64
X107.95Y-43.18
X110.49Y-40.64
X110.49Y-43.18
X113.03Y-40.64
X113.03Y-43.18
X115.57Y-40.64
X115.57Y-43.18
X118.11Y-40.64
X118.11Y-43.18
X120.65Y-40.64
X120.65Y-43.18
X123.19Y-40.64
X123.19Y-43.18
X125.73Y-40.64
X125.73Y-43.18
X128.27Y-40.64
X128.27Y-43.18
X130.81Y-40.64
X130.81Y-43.18
X133.35Y-40.64
X133.35Y-43.18
X135.89Y-40.64
X135.89Y-43.18
X138.43Y-40.64
X138.43Y-43.18
X140.97Y-40.64
X140.97Y-43.18
X143.51Y-40.64
X143.51Y-43.18
X146.05Y-40.64
X146.05Y-43.18
X148.59Y-40.64
X148.59Y-43.18
X151.13Y-40.64
X151.13Y-43.18
X153.67Y-40.64
X153.67Y-43.18
X156.21Y-40.64
X156.21Y-43.18
T7
X92.08Y-53.975
X92.08Y-57.785
T8
X103.08Y-41.91
X161.08Y-41.91
T0
M30
