%FSLAX45Y45*%
G04 Gerber Fmt 4.5, Leading zero omitted, Abs format (unit mm)*
G04 Created by KiCad (PCBNEW 6.0.5) date 2022-05-12 16:15:44*
%MOMM*%
%LPD*%
G01*
G04 APERTURE LIST*
%TA.AperFunction,Profile*%
%ADD10C,0.100000*%
%TD*%
%ADD11C,0.200000*%
%ADD12C,0.063500*%
%ADD13C,0.080000*%
%ADD14C,0.095000*%
%ADD15C,0.100000*%
%ADD16C,0.101600*%
%ADD17C,0.120000*%
%ADD18C,0.304800*%
G04 APERTURE END LIST*
D10*
X9779000Y-7874000D02*
X9144000Y-7874000D01*
X9017000Y-4445000D02*
G75*
G03*
X8763000Y-4699000I0J-254000D01*
G01*
X16510000Y-3937000D02*
G75*
G03*
X16256000Y-3683000I-254000J0D01*
G01*
X10160000Y-3683000D02*
G75*
G03*
X9906000Y-3937000I0J-254000D01*
G01*
X10160000Y-9017000D02*
X10160000Y-8255000D01*
X16129000Y-9398000D02*
G75*
G03*
X16510000Y-9017000I0J381000D01*
G01*
X8763000Y-7493000D02*
G75*
G03*
X9144000Y-7874000I381000J0D01*
G01*
X8763000Y-7493000D02*
X8763000Y-4699000D01*
X16129000Y-9398000D02*
X10541000Y-9398000D01*
X10160000Y-8255000D02*
G75*
G03*
X9779000Y-7874000I-381000J0D01*
G01*
X16510000Y-9017000D02*
X16510000Y-3937000D01*
X10160000Y-9017000D02*
G75*
G03*
X10541000Y-9398000I381000J0D01*
G01*
X9017000Y-4445000D02*
X9906000Y-4445000D01*
X10160000Y-3683000D02*
X16256000Y-3683000D01*
X9906000Y-4445000D02*
X9906000Y-3937000D01*
D11*
D12*
X9396550Y-5140660D02*
X9460050Y-5204160D01*
X9460050Y-5140660D02*
X9396550Y-5204160D01*
X10042020Y-5095170D02*
X10105520Y-5158670D01*
X10105520Y-5095170D02*
X10042020Y-5158670D01*
X11027490Y-4716430D02*
X11090990Y-4779930D01*
X11090990Y-4716430D02*
X11027490Y-4779930D01*
X11094500Y-7043820D02*
X11158000Y-7107320D01*
X11158000Y-7043820D02*
X11094500Y-7107320D01*
X11204940Y-5622900D02*
X11268440Y-5686400D01*
X11268440Y-5622900D02*
X11204940Y-5686400D01*
X11252710Y-4802970D02*
X11316210Y-4866470D01*
X11316210Y-4802970D02*
X11252710Y-4866470D01*
X11767790Y-4635640D02*
X11831290Y-4699140D01*
X11831290Y-4635640D02*
X11767790Y-4699140D01*
X11927990Y-6866850D02*
X11991490Y-6930350D01*
X11991490Y-6866850D02*
X11927990Y-6930350D01*
X11957500Y-3725000D02*
X12021000Y-3788500D01*
X12021000Y-3725000D02*
X11957500Y-3788500D01*
X11981380Y-4563050D02*
X12044880Y-4626550D01*
X12044880Y-4563050D02*
X11981380Y-4626550D01*
X12197380Y-6119870D02*
X12260880Y-6183370D01*
X12260880Y-6119870D02*
X12197380Y-6183370D01*
X12253570Y-4567000D02*
X12317070Y-4630500D01*
X12317070Y-4567000D02*
X12253570Y-4630500D01*
X12310670Y-6070000D02*
X12374170Y-6133500D01*
X12374170Y-6070000D02*
X12310670Y-6133500D01*
X12389000Y-7026860D02*
X12452500Y-7090360D01*
X12452500Y-7026860D02*
X12389000Y-7090360D01*
X12413000Y-4161750D02*
X12476500Y-4225250D01*
X12476500Y-4161750D02*
X12413000Y-4225250D01*
X12433820Y-4704700D02*
X12497320Y-4768200D01*
X12497320Y-4704700D02*
X12433820Y-4768200D01*
X12689840Y-6081980D02*
X12753340Y-6145480D01*
X12753340Y-6081980D02*
X12689840Y-6145480D01*
X12703270Y-5165160D02*
X12766770Y-5228660D01*
X12766770Y-5165160D02*
X12703270Y-5228660D01*
X12842100Y-4738840D02*
X12905600Y-4802340D01*
X12905600Y-4738840D02*
X12842100Y-4802340D01*
X12900550Y-5522930D02*
X12964050Y-5586430D01*
X12964050Y-5522930D02*
X12900550Y-5586430D01*
X12991440Y-4890670D02*
X13054940Y-4954170D01*
X13054940Y-4890670D02*
X12991440Y-4954170D01*
X13067080Y-6470990D02*
X13130580Y-6534490D01*
X13130580Y-6470990D02*
X13067080Y-6534490D01*
X13236610Y-6675280D02*
X13300110Y-6738780D01*
X13300110Y-6675280D02*
X13236610Y-6738780D01*
X13316750Y-4791740D02*
X13380250Y-4855240D01*
X13380250Y-4791740D02*
X13316750Y-4855240D01*
X13435180Y-6181070D02*
X13498680Y-6244570D01*
X13498680Y-6181070D02*
X13435180Y-6244570D01*
X13472220Y-4758030D02*
X13535720Y-4821530D01*
X13535720Y-4758030D02*
X13472220Y-4821530D01*
X13508970Y-6068580D02*
X13572470Y-6132080D01*
X13572470Y-6068580D02*
X13508970Y-6132080D01*
X13683460Y-4540630D02*
X13746960Y-4604130D01*
X13746960Y-4540630D02*
X13683460Y-4604130D01*
X13713230Y-6113840D02*
X13776730Y-6177340D01*
X13776730Y-6113840D02*
X13713230Y-6177340D01*
X13795740Y-4790040D02*
X13859240Y-4853540D01*
X13859240Y-4790040D02*
X13795740Y-4853540D01*
X13811250Y-4542280D02*
X13874750Y-4605780D01*
X13874750Y-4542280D02*
X13811250Y-4605780D01*
X14779420Y-5424460D02*
X14842920Y-5487960D01*
X14842920Y-5424460D02*
X14779420Y-5487960D01*
X14951660Y-3729490D02*
X15015160Y-3792990D01*
X15015160Y-3729490D02*
X14951660Y-3792990D01*
X14954250Y-4667250D02*
X15017750Y-4730750D01*
X15017750Y-4667250D02*
X14954250Y-4730750D01*
X14969180Y-5607590D02*
X15032680Y-5671090D01*
X15032680Y-5607590D02*
X14969180Y-5671090D01*
X14971080Y-6074990D02*
X15034580Y-6138490D01*
X15034580Y-6074990D02*
X14971080Y-6138490D01*
X14973770Y-5195650D02*
X15037270Y-5259150D01*
X15037270Y-5195650D02*
X14973770Y-5259150D01*
X15211370Y-5128790D02*
X15274870Y-5192290D01*
X15274870Y-5128790D02*
X15211370Y-5192290D01*
X15246420Y-4674070D02*
X15309920Y-4737570D01*
X15309920Y-4674070D02*
X15246420Y-4737570D01*
X15431400Y-5137390D02*
X15494900Y-5200890D01*
X15494900Y-5137390D02*
X15431400Y-5200890D01*
X15545820Y-5155740D02*
X15609320Y-5219240D01*
X15609320Y-5155740D02*
X15545820Y-5219240D01*
X15930160Y-4711060D02*
X15993660Y-4774560D01*
X15993660Y-4711060D02*
X15930160Y-4774560D01*
D13*
X15960460Y-5260530D02*
G75*
G03*
X15960460Y-5260530I-40000J0D01*
G01*
X9906000Y-4717740D02*
X9906000Y-4797740D01*
X9866000Y-4757740D02*
X9946000Y-4757740D01*
X9906000Y-4967740D02*
X9906000Y-5047740D01*
X9866000Y-5007740D02*
X9946000Y-5007740D01*
D14*
X10014088Y-5629588D02*
X10014088Y-5562412D01*
X9946912Y-5562412D01*
X9946912Y-5629588D01*
X10014088Y-5629588D01*
X10014088Y-5879588D02*
X10014088Y-5812412D01*
X9946912Y-5812412D01*
X9946912Y-5879588D01*
X10014088Y-5879588D01*
X10014088Y-6129588D02*
X10014088Y-6062412D01*
X9946912Y-6062412D01*
X9946912Y-6129588D01*
X10014088Y-6129588D01*
X10014088Y-6379588D02*
X10014088Y-6312412D01*
X9946912Y-6312412D01*
X9946912Y-6379588D01*
X10014088Y-6379588D01*
X10014088Y-6629588D02*
X10014088Y-6562412D01*
X9946912Y-6562412D01*
X9946912Y-6629588D01*
X10014088Y-6629588D01*
X15845088Y-7979088D02*
X15845088Y-7911912D01*
X15777912Y-7911912D01*
X15777912Y-7979088D01*
X15845088Y-7979088D01*
X15845088Y-8229088D02*
X15845088Y-8161912D01*
X15777912Y-8161912D01*
X15777912Y-8229088D01*
X15845088Y-8229088D01*
X15845088Y-8479088D02*
X15845088Y-8411912D01*
X15777912Y-8411912D01*
X15777912Y-8479088D01*
X15845088Y-8479088D01*
D15*
X10672000Y-5066500D02*
X10722000Y-5016500D01*
X10672000Y-4966500D01*
X10622000Y-5016500D01*
X10672000Y-5066500D01*
X10922000Y-5066500D02*
X10972000Y-5016500D01*
X10922000Y-4966500D01*
X10872000Y-5016500D01*
X10922000Y-5066500D01*
X11049000Y-6501600D02*
X11099000Y-6451600D01*
X11049000Y-6401600D01*
X10999000Y-6451600D01*
X11049000Y-6501600D01*
X11049000Y-6755600D02*
X11099000Y-6705600D01*
X11049000Y-6655600D01*
X10999000Y-6705600D01*
X11049000Y-6755600D01*
X11303000Y-6501600D02*
X11353000Y-6451600D01*
X11303000Y-6401600D01*
X11253000Y-6451600D01*
X11303000Y-6501600D01*
X11303000Y-6755600D02*
X11353000Y-6705600D01*
X11303000Y-6655600D01*
X11253000Y-6705600D01*
X11303000Y-6755600D01*
X11493500Y-7544000D02*
X11543500Y-7494000D01*
X11493500Y-7444000D01*
X11443500Y-7494000D01*
X11493500Y-7544000D01*
X11493500Y-9068000D02*
X11543500Y-9018000D01*
X11493500Y-8968000D01*
X11443500Y-9018000D01*
X11493500Y-9068000D01*
X11557000Y-6501600D02*
X11607000Y-6451600D01*
X11557000Y-6401600D01*
X11507000Y-6451600D01*
X11557000Y-6501600D01*
X11557000Y-6755600D02*
X11607000Y-6705600D01*
X11557000Y-6655600D01*
X11507000Y-6705600D01*
X11557000Y-6755600D01*
X11747500Y-7544000D02*
X11797500Y-7494000D01*
X11747500Y-7444000D01*
X11697500Y-7494000D01*
X11747500Y-7544000D01*
X11747500Y-9068000D02*
X11797500Y-9018000D01*
X11747500Y-8968000D01*
X11697500Y-9018000D01*
X11747500Y-9068000D01*
X11811000Y-6501600D02*
X11861000Y-6451600D01*
X11811000Y-6401600D01*
X11761000Y-6451600D01*
X11811000Y-6501600D01*
X11811000Y-6755600D02*
X11861000Y-6705600D01*
X11811000Y-6655600D01*
X11761000Y-6705600D01*
X11811000Y-6755600D01*
X12001500Y-7544000D02*
X12051500Y-7494000D01*
X12001500Y-7444000D01*
X11951500Y-7494000D01*
X12001500Y-7544000D01*
X12001500Y-9068000D02*
X12051500Y-9018000D01*
X12001500Y-8968000D01*
X11951500Y-9018000D01*
X12001500Y-9068000D01*
X12065000Y-6501600D02*
X12115000Y-6451600D01*
X12065000Y-6401600D01*
X12015000Y-6451600D01*
X12065000Y-6501600D01*
X12065000Y-6755600D02*
X12115000Y-6705600D01*
X12065000Y-6655600D01*
X12015000Y-6705600D01*
X12065000Y-6755600D01*
X12255500Y-7544000D02*
X12305500Y-7494000D01*
X12255500Y-7444000D01*
X12205500Y-7494000D01*
X12255500Y-7544000D01*
X12255500Y-9068000D02*
X12305500Y-9018000D01*
X12255500Y-8968000D01*
X12205500Y-9018000D01*
X12255500Y-9068000D01*
X12319000Y-6501600D02*
X12369000Y-6451600D01*
X12319000Y-6401600D01*
X12269000Y-6451600D01*
X12319000Y-6501600D01*
X12319000Y-6755600D02*
X12369000Y-6705600D01*
X12319000Y-6655600D01*
X12269000Y-6705600D01*
X12319000Y-6755600D01*
X12509500Y-7544000D02*
X12559500Y-7494000D01*
X12509500Y-7444000D01*
X12459500Y-7494000D01*
X12509500Y-7544000D01*
X12509500Y-9068000D02*
X12559500Y-9018000D01*
X12509500Y-8968000D01*
X12459500Y-9018000D01*
X12509500Y-9068000D01*
X12573000Y-6501600D02*
X12623000Y-6451600D01*
X12573000Y-6401600D01*
X12523000Y-6451600D01*
X12573000Y-6501600D01*
X12573000Y-6755600D02*
X12623000Y-6705600D01*
X12573000Y-6655600D01*
X12523000Y-6705600D01*
X12573000Y-6755600D01*
X12763500Y-7544000D02*
X12813500Y-7494000D01*
X12763500Y-7444000D01*
X12713500Y-7494000D01*
X12763500Y-7544000D01*
X12763500Y-9068000D02*
X12813500Y-9018000D01*
X12763500Y-8968000D01*
X12713500Y-9018000D01*
X12763500Y-9068000D01*
X12827000Y-6501600D02*
X12877000Y-6451600D01*
X12827000Y-6401600D01*
X12777000Y-6451600D01*
X12827000Y-6501600D01*
X12827000Y-6755600D02*
X12877000Y-6705600D01*
X12827000Y-6655600D01*
X12777000Y-6705600D01*
X12827000Y-6755600D01*
X13017500Y-7544000D02*
X13067500Y-7494000D01*
X13017500Y-7444000D01*
X12967500Y-7494000D01*
X13017500Y-7544000D01*
X13017500Y-9068000D02*
X13067500Y-9018000D01*
X13017500Y-8968000D01*
X12967500Y-9018000D01*
X13017500Y-9068000D01*
X13271500Y-7544000D02*
X13321500Y-7494000D01*
X13271500Y-7444000D01*
X13221500Y-7494000D01*
X13271500Y-7544000D01*
X13271500Y-9068000D02*
X13321500Y-9018000D01*
X13271500Y-8968000D01*
X13221500Y-9018000D01*
X13271500Y-9068000D01*
X13525500Y-7544000D02*
X13575500Y-7494000D01*
X13525500Y-7444000D01*
X13475500Y-7494000D01*
X13525500Y-7544000D01*
X13525500Y-9068000D02*
X13575500Y-9018000D01*
X13525500Y-8968000D01*
X13475500Y-9018000D01*
X13525500Y-9068000D01*
X13779500Y-7544000D02*
X13829500Y-7494000D01*
X13779500Y-7444000D01*
X13729500Y-7494000D01*
X13779500Y-7544000D01*
X13779500Y-9068000D02*
X13829500Y-9018000D01*
X13779500Y-8968000D01*
X13729500Y-9018000D01*
X13779500Y-9068000D01*
X13970000Y-6527000D02*
X14020000Y-6477000D01*
X13970000Y-6427000D01*
X13920000Y-6477000D01*
X13970000Y-6527000D01*
X13970000Y-6781000D02*
X14020000Y-6731000D01*
X13970000Y-6681000D01*
X13920000Y-6731000D01*
X13970000Y-6781000D01*
X14033500Y-7544000D02*
X14083500Y-7494000D01*
X14033500Y-7444000D01*
X13983500Y-7494000D01*
X14033500Y-7544000D01*
X14033500Y-9068000D02*
X14083500Y-9018000D01*
X14033500Y-8968000D01*
X13983500Y-9018000D01*
X14033500Y-9068000D01*
X14224000Y-6527000D02*
X14274000Y-6477000D01*
X14224000Y-6427000D01*
X14174000Y-6477000D01*
X14224000Y-6527000D01*
X14224000Y-6781000D02*
X14274000Y-6731000D01*
X14224000Y-6681000D01*
X14174000Y-6731000D01*
X14224000Y-6781000D01*
X14287500Y-7544000D02*
X14337500Y-7494000D01*
X14287500Y-7444000D01*
X14237500Y-7494000D01*
X14287500Y-7544000D01*
X14287500Y-9068000D02*
X14337500Y-9018000D01*
X14287500Y-8968000D01*
X14237500Y-9018000D01*
X14287500Y-9068000D01*
X14478000Y-6527000D02*
X14528000Y-6477000D01*
X14478000Y-6427000D01*
X14428000Y-6477000D01*
X14478000Y-6527000D01*
X14478000Y-6781000D02*
X14528000Y-6731000D01*
X14478000Y-6681000D01*
X14428000Y-6731000D01*
X14478000Y-6781000D01*
X14541500Y-7544000D02*
X14591500Y-7494000D01*
X14541500Y-7444000D01*
X14491500Y-7494000D01*
X14541500Y-7544000D01*
X14541500Y-9068000D02*
X14591500Y-9018000D01*
X14541500Y-8968000D01*
X14491500Y-9018000D01*
X14541500Y-9068000D01*
X14732000Y-6527000D02*
X14782000Y-6477000D01*
X14732000Y-6427000D01*
X14682000Y-6477000D01*
X14732000Y-6527000D01*
X14732000Y-6781000D02*
X14782000Y-6731000D01*
X14732000Y-6681000D01*
X14682000Y-6731000D01*
X14732000Y-6781000D01*
X14795500Y-7544000D02*
X14845500Y-7494000D01*
X14795500Y-7444000D01*
X14745500Y-7494000D01*
X14795500Y-7544000D01*
X14795500Y-9068000D02*
X14845500Y-9018000D01*
X14795500Y-8968000D01*
X14745500Y-9018000D01*
X14795500Y-9068000D01*
X14986000Y-6527000D02*
X15036000Y-6477000D01*
X14986000Y-6427000D01*
X14936000Y-6477000D01*
X14986000Y-6527000D01*
X14986000Y-6781000D02*
X15036000Y-6731000D01*
X14986000Y-6681000D01*
X14936000Y-6731000D01*
X14986000Y-6781000D01*
X15049500Y-7544000D02*
X15099500Y-7494000D01*
X15049500Y-7444000D01*
X14999500Y-7494000D01*
X15049500Y-7544000D01*
X15049500Y-9068000D02*
X15099500Y-9018000D01*
X15049500Y-8968000D01*
X14999500Y-9018000D01*
X15049500Y-9068000D01*
X15240000Y-6527000D02*
X15290000Y-6477000D01*
X15240000Y-6427000D01*
X15190000Y-6477000D01*
X15240000Y-6527000D01*
X15240000Y-6781000D02*
X15290000Y-6731000D01*
X15240000Y-6681000D01*
X15190000Y-6731000D01*
X15240000Y-6781000D01*
X15494000Y-6527000D02*
X15544000Y-6477000D01*
X15494000Y-6427000D01*
X15444000Y-6477000D01*
X15494000Y-6527000D01*
X15494000Y-6781000D02*
X15544000Y-6731000D01*
X15494000Y-6681000D01*
X15444000Y-6731000D01*
X15494000Y-6781000D01*
X15748000Y-6527000D02*
X15798000Y-6477000D01*
X15748000Y-6427000D01*
X15698000Y-6477000D01*
X15748000Y-6527000D01*
X15748000Y-6781000D02*
X15798000Y-6731000D01*
X15748000Y-6681000D01*
X15698000Y-6731000D01*
X15748000Y-6781000D01*
D16*
X9029700Y-6235700D02*
X9131300Y-6337300D01*
X9131300Y-6235700D02*
X9029700Y-6337300D01*
X9131300Y-6286500D02*
G75*
G03*
X9131300Y-6286500I-50800J0D01*
G01*
X9029700Y-6489700D02*
X9131300Y-6591300D01*
X9131300Y-6489700D02*
X9029700Y-6591300D01*
X9131300Y-6540500D02*
G75*
G03*
X9131300Y-6540500I-50800J0D01*
G01*
X9029700Y-6743700D02*
X9131300Y-6845300D01*
X9131300Y-6743700D02*
X9029700Y-6845300D01*
X9131300Y-6794500D02*
G75*
G03*
X9131300Y-6794500I-50800J0D01*
G01*
X9283700Y-6235700D02*
X9385300Y-6337300D01*
X9385300Y-6235700D02*
X9283700Y-6337300D01*
X9385300Y-6286500D02*
G75*
G03*
X9385300Y-6286500I-50800J0D01*
G01*
X9283700Y-6489700D02*
X9385300Y-6591300D01*
X9385300Y-6489700D02*
X9283700Y-6591300D01*
X9385300Y-6540500D02*
G75*
G03*
X9385300Y-6540500I-50800J0D01*
G01*
X9283700Y-6743700D02*
X9385300Y-6845300D01*
X9385300Y-6743700D02*
X9283700Y-6845300D01*
X9385300Y-6794500D02*
G75*
G03*
X9385300Y-6794500I-50800J0D01*
G01*
X10744200Y-4013200D02*
X10845800Y-4114800D01*
X10845800Y-4013200D02*
X10744200Y-4114800D01*
X10845800Y-4064000D02*
G75*
G03*
X10845800Y-4064000I-50800J0D01*
G01*
X10744200Y-4267200D02*
X10845800Y-4368800D01*
X10845800Y-4267200D02*
X10744200Y-4368800D01*
X10845800Y-4318000D02*
G75*
G03*
X10845800Y-4318000I-50800J0D01*
G01*
X10998200Y-4013200D02*
X11099800Y-4114800D01*
X11099800Y-4013200D02*
X10998200Y-4114800D01*
X11099800Y-4064000D02*
G75*
G03*
X11099800Y-4064000I-50800J0D01*
G01*
X10998200Y-4267200D02*
X11099800Y-4368800D01*
X11099800Y-4267200D02*
X10998200Y-4368800D01*
X11099800Y-4318000D02*
G75*
G03*
X11099800Y-4318000I-50800J0D01*
G01*
X11252200Y-4013200D02*
X11353800Y-4114800D01*
X11353800Y-4013200D02*
X11252200Y-4114800D01*
X11353800Y-4064000D02*
G75*
G03*
X11353800Y-4064000I-50800J0D01*
G01*
X11252200Y-4267200D02*
X11353800Y-4368800D01*
X11353800Y-4267200D02*
X11252200Y-4368800D01*
X11353800Y-4318000D02*
G75*
G03*
X11353800Y-4318000I-50800J0D01*
G01*
X11506200Y-4013200D02*
X11607800Y-4114800D01*
X11607800Y-4013200D02*
X11506200Y-4114800D01*
X11607800Y-4064000D02*
G75*
G03*
X11607800Y-4064000I-50800J0D01*
G01*
X11506200Y-4267200D02*
X11607800Y-4368800D01*
X11607800Y-4267200D02*
X11506200Y-4368800D01*
X11607800Y-4318000D02*
G75*
G03*
X11607800Y-4318000I-50800J0D01*
G01*
X11760200Y-4013200D02*
X11861800Y-4114800D01*
X11861800Y-4013200D02*
X11760200Y-4114800D01*
X11861800Y-4064000D02*
G75*
G03*
X11861800Y-4064000I-50800J0D01*
G01*
X11760200Y-4267200D02*
X11861800Y-4368800D01*
X11861800Y-4267200D02*
X11760200Y-4368800D01*
X11861800Y-4318000D02*
G75*
G03*
X11861800Y-4318000I-50800J0D01*
G01*
X12014200Y-4013200D02*
X12115800Y-4114800D01*
X12115800Y-4013200D02*
X12014200Y-4114800D01*
X12115800Y-4064000D02*
G75*
G03*
X12115800Y-4064000I-50800J0D01*
G01*
X12014200Y-4267200D02*
X12115800Y-4368800D01*
X12115800Y-4267200D02*
X12014200Y-4368800D01*
X12115800Y-4318000D02*
G75*
G03*
X12115800Y-4318000I-50800J0D01*
G01*
X12268200Y-4013200D02*
X12369800Y-4114800D01*
X12369800Y-4013200D02*
X12268200Y-4114800D01*
X12369800Y-4064000D02*
G75*
G03*
X12369800Y-4064000I-50800J0D01*
G01*
X12268200Y-4267200D02*
X12369800Y-4368800D01*
X12369800Y-4267200D02*
X12268200Y-4368800D01*
X12369800Y-4318000D02*
G75*
G03*
X12369800Y-4318000I-50800J0D01*
G01*
X12522200Y-4013200D02*
X12623800Y-4114800D01*
X12623800Y-4013200D02*
X12522200Y-4114800D01*
X12623800Y-4064000D02*
G75*
G03*
X12623800Y-4064000I-50800J0D01*
G01*
X12522200Y-4267200D02*
X12623800Y-4368800D01*
X12623800Y-4267200D02*
X12522200Y-4368800D01*
X12623800Y-4318000D02*
G75*
G03*
X12623800Y-4318000I-50800J0D01*
G01*
X12776200Y-4013200D02*
X12877800Y-4114800D01*
X12877800Y-4013200D02*
X12776200Y-4114800D01*
X12877800Y-4064000D02*
G75*
G03*
X12877800Y-4064000I-50800J0D01*
G01*
X12776200Y-4267200D02*
X12877800Y-4368800D01*
X12877800Y-4267200D02*
X12776200Y-4368800D01*
X12877800Y-4318000D02*
G75*
G03*
X12877800Y-4318000I-50800J0D01*
G01*
X13030200Y-4013200D02*
X13131800Y-4114800D01*
X13131800Y-4013200D02*
X13030200Y-4114800D01*
X13131800Y-4064000D02*
G75*
G03*
X13131800Y-4064000I-50800J0D01*
G01*
X13030200Y-4267200D02*
X13131800Y-4368800D01*
X13131800Y-4267200D02*
X13030200Y-4368800D01*
X13131800Y-4318000D02*
G75*
G03*
X13131800Y-4318000I-50800J0D01*
G01*
X13284200Y-4013200D02*
X13385800Y-4114800D01*
X13385800Y-4013200D02*
X13284200Y-4114800D01*
X13385800Y-4064000D02*
G75*
G03*
X13385800Y-4064000I-50800J0D01*
G01*
X13284200Y-4267200D02*
X13385800Y-4368800D01*
X13385800Y-4267200D02*
X13284200Y-4368800D01*
X13385800Y-4318000D02*
G75*
G03*
X13385800Y-4318000I-50800J0D01*
G01*
X13538200Y-4013200D02*
X13639800Y-4114800D01*
X13639800Y-4013200D02*
X13538200Y-4114800D01*
X13639800Y-4064000D02*
G75*
G03*
X13639800Y-4064000I-50800J0D01*
G01*
X13538200Y-4267200D02*
X13639800Y-4368800D01*
X13639800Y-4267200D02*
X13538200Y-4368800D01*
X13639800Y-4318000D02*
G75*
G03*
X13639800Y-4318000I-50800J0D01*
G01*
X13792200Y-4013200D02*
X13893800Y-4114800D01*
X13893800Y-4013200D02*
X13792200Y-4114800D01*
X13893800Y-4064000D02*
G75*
G03*
X13893800Y-4064000I-50800J0D01*
G01*
X13792200Y-4267200D02*
X13893800Y-4368800D01*
X13893800Y-4267200D02*
X13792200Y-4368800D01*
X13893800Y-4318000D02*
G75*
G03*
X13893800Y-4318000I-50800J0D01*
G01*
X14046200Y-4013200D02*
X14147800Y-4114800D01*
X14147800Y-4013200D02*
X14046200Y-4114800D01*
X14147800Y-4064000D02*
G75*
G03*
X14147800Y-4064000I-50800J0D01*
G01*
X14046200Y-4267200D02*
X14147800Y-4368800D01*
X14147800Y-4267200D02*
X14046200Y-4368800D01*
X14147800Y-4318000D02*
G75*
G03*
X14147800Y-4318000I-50800J0D01*
G01*
X14300200Y-4013200D02*
X14401800Y-4114800D01*
X14401800Y-4013200D02*
X14300200Y-4114800D01*
X14401800Y-4064000D02*
G75*
G03*
X14401800Y-4064000I-50800J0D01*
G01*
X14300200Y-4267200D02*
X14401800Y-4368800D01*
X14401800Y-4267200D02*
X14300200Y-4368800D01*
X14401800Y-4318000D02*
G75*
G03*
X14401800Y-4318000I-50800J0D01*
G01*
X14554200Y-4013200D02*
X14655800Y-4114800D01*
X14655800Y-4013200D02*
X14554200Y-4114800D01*
X14655800Y-4064000D02*
G75*
G03*
X14655800Y-4064000I-50800J0D01*
G01*
X14554200Y-4267200D02*
X14655800Y-4368800D01*
X14655800Y-4267200D02*
X14554200Y-4368800D01*
X14655800Y-4318000D02*
G75*
G03*
X14655800Y-4318000I-50800J0D01*
G01*
X14808200Y-4013200D02*
X14909800Y-4114800D01*
X14909800Y-4013200D02*
X14808200Y-4114800D01*
X14909800Y-4064000D02*
G75*
G03*
X14909800Y-4064000I-50800J0D01*
G01*
X14808200Y-4267200D02*
X14909800Y-4368800D01*
X14909800Y-4267200D02*
X14808200Y-4368800D01*
X14909800Y-4318000D02*
G75*
G03*
X14909800Y-4318000I-50800J0D01*
G01*
X15062200Y-4013200D02*
X15163800Y-4114800D01*
X15163800Y-4013200D02*
X15062200Y-4114800D01*
X15163800Y-4064000D02*
G75*
G03*
X15163800Y-4064000I-50800J0D01*
G01*
X15062200Y-4267200D02*
X15163800Y-4368800D01*
X15163800Y-4267200D02*
X15062200Y-4368800D01*
X15163800Y-4318000D02*
G75*
G03*
X15163800Y-4318000I-50800J0D01*
G01*
X15316200Y-4013200D02*
X15417800Y-4114800D01*
X15417800Y-4013200D02*
X15316200Y-4114800D01*
X15417800Y-4064000D02*
G75*
G03*
X15417800Y-4064000I-50800J0D01*
G01*
X15316200Y-4267200D02*
X15417800Y-4368800D01*
X15417800Y-4267200D02*
X15316200Y-4368800D01*
X15417800Y-4318000D02*
G75*
G03*
X15417800Y-4318000I-50800J0D01*
G01*
X15570200Y-4013200D02*
X15671800Y-4114800D01*
X15671800Y-4013200D02*
X15570200Y-4114800D01*
X15671800Y-4064000D02*
G75*
G03*
X15671800Y-4064000I-50800J0D01*
G01*
X15570200Y-4267200D02*
X15671800Y-4368800D01*
X15671800Y-4267200D02*
X15570200Y-4368800D01*
X15671800Y-4318000D02*
G75*
G03*
X15671800Y-4318000I-50800J0D01*
G01*
D17*
X9148000Y-5337500D02*
X9268000Y-5457500D01*
X9268000Y-5337500D02*
X9148000Y-5457500D01*
X9208000Y-5337500D02*
X9208000Y-5457500D01*
X9148000Y-5397500D02*
X9268000Y-5397500D01*
X9148000Y-5718500D02*
X9268000Y-5838500D01*
X9268000Y-5718500D02*
X9148000Y-5838500D01*
X9208000Y-5718500D02*
X9208000Y-5838500D01*
X9148000Y-5778500D02*
X9268000Y-5778500D01*
D18*
X10155600Y-4038600D02*
X10460400Y-4343400D01*
X10460400Y-4038600D02*
X10155600Y-4343400D01*
X10415764Y-4298764D02*
X10415764Y-4083236D01*
X10200236Y-4083236D01*
X10200236Y-4298764D01*
X10415764Y-4298764D01*
X15955600Y-4038600D02*
X16260400Y-4343400D01*
X16260400Y-4038600D02*
X15955600Y-4343400D01*
X16215764Y-4298764D02*
X16215764Y-4083236D01*
X16000236Y-4083236D01*
X16000236Y-4298764D01*
X16215764Y-4298764D01*
D11*
X9015619Y-9713476D02*
X9015619Y-9513476D01*
X9063238Y-9513476D01*
X9091810Y-9523000D01*
X9110857Y-9542048D01*
X9120381Y-9561095D01*
X9129905Y-9599190D01*
X9129905Y-9627762D01*
X9120381Y-9665857D01*
X9110857Y-9684905D01*
X9091810Y-9703952D01*
X9063238Y-9713476D01*
X9015619Y-9713476D01*
X9215619Y-9713476D02*
X9215619Y-9580143D01*
X9215619Y-9618238D02*
X9225143Y-9599190D01*
X9234667Y-9589667D01*
X9253714Y-9580143D01*
X9272762Y-9580143D01*
X9339429Y-9713476D02*
X9339429Y-9580143D01*
X9339429Y-9513476D02*
X9329905Y-9523000D01*
X9339429Y-9532524D01*
X9348952Y-9523000D01*
X9339429Y-9513476D01*
X9339429Y-9532524D01*
X9463238Y-9713476D02*
X9444190Y-9703952D01*
X9434667Y-9684905D01*
X9434667Y-9513476D01*
X9568000Y-9713476D02*
X9548952Y-9703952D01*
X9539429Y-9684905D01*
X9539429Y-9513476D01*
X9796571Y-9713476D02*
X9796571Y-9513476D01*
X9863238Y-9656333D01*
X9929905Y-9513476D01*
X9929905Y-9713476D01*
X10110857Y-9713476D02*
X10110857Y-9608714D01*
X10101333Y-9589667D01*
X10082286Y-9580143D01*
X10044190Y-9580143D01*
X10025143Y-9589667D01*
X10110857Y-9703952D02*
X10091810Y-9713476D01*
X10044190Y-9713476D01*
X10025143Y-9703952D01*
X10015619Y-9684905D01*
X10015619Y-9665857D01*
X10025143Y-9646810D01*
X10044190Y-9637286D01*
X10091810Y-9637286D01*
X10110857Y-9627762D01*
X10206095Y-9580143D02*
X10206095Y-9780143D01*
X10206095Y-9589667D02*
X10225143Y-9580143D01*
X10263238Y-9580143D01*
X10282286Y-9589667D01*
X10291810Y-9599190D01*
X10301333Y-9618238D01*
X10301333Y-9675381D01*
X10291810Y-9694429D01*
X10282286Y-9703952D01*
X10263238Y-9713476D01*
X10225143Y-9713476D01*
X10206095Y-9703952D01*
X10387048Y-9694429D02*
X10396571Y-9703952D01*
X10387048Y-9713476D01*
X10377524Y-9703952D01*
X10387048Y-9694429D01*
X10387048Y-9713476D01*
X10387048Y-9589667D02*
X10396571Y-9599190D01*
X10387048Y-9608714D01*
X10377524Y-9599190D01*
X10387048Y-9589667D01*
X10387048Y-9608714D01*
D12*
X8694500Y-10011250D02*
X8758000Y-10074750D01*
X8758000Y-10011250D02*
X8694500Y-10074750D01*
D11*
X9053714Y-9933476D02*
X9072762Y-9933476D01*
X9091810Y-9943000D01*
X9101333Y-9952524D01*
X9110857Y-9971571D01*
X9120381Y-10009667D01*
X9120381Y-10057286D01*
X9110857Y-10095381D01*
X9101333Y-10114429D01*
X9091810Y-10123952D01*
X9072762Y-10133476D01*
X9053714Y-10133476D01*
X9034667Y-10123952D01*
X9025143Y-10114429D01*
X9015619Y-10095381D01*
X9006095Y-10057286D01*
X9006095Y-10009667D01*
X9015619Y-9971571D01*
X9025143Y-9952524D01*
X9034667Y-9943000D01*
X9053714Y-9933476D01*
X9206095Y-10114429D02*
X9215619Y-10123952D01*
X9206095Y-10133476D01*
X9196571Y-10123952D01*
X9206095Y-10114429D01*
X9206095Y-10133476D01*
X9387048Y-9933476D02*
X9348952Y-9933476D01*
X9329905Y-9943000D01*
X9320381Y-9952524D01*
X9301333Y-9981095D01*
X9291810Y-10019190D01*
X9291810Y-10095381D01*
X9301333Y-10114429D01*
X9310857Y-10123952D01*
X9329905Y-10133476D01*
X9368000Y-10133476D01*
X9387048Y-10123952D01*
X9396571Y-10114429D01*
X9406095Y-10095381D01*
X9406095Y-10047762D01*
X9396571Y-10028714D01*
X9387048Y-10019190D01*
X9368000Y-10009667D01*
X9329905Y-10009667D01*
X9310857Y-10019190D01*
X9301333Y-10028714D01*
X9291810Y-10047762D01*
X9472762Y-9933476D02*
X9596571Y-9933476D01*
X9529905Y-10009667D01*
X9558476Y-10009667D01*
X9577524Y-10019190D01*
X9587048Y-10028714D01*
X9596571Y-10047762D01*
X9596571Y-10095381D01*
X9587048Y-10114429D01*
X9577524Y-10123952D01*
X9558476Y-10133476D01*
X9501333Y-10133476D01*
X9482286Y-10123952D01*
X9472762Y-10114429D01*
X9777524Y-9933476D02*
X9682286Y-9933476D01*
X9672762Y-10028714D01*
X9682286Y-10019190D01*
X9701333Y-10009667D01*
X9748952Y-10009667D01*
X9768000Y-10019190D01*
X9777524Y-10028714D01*
X9787048Y-10047762D01*
X9787048Y-10095381D01*
X9777524Y-10114429D01*
X9768000Y-10123952D01*
X9748952Y-10133476D01*
X9701333Y-10133476D01*
X9682286Y-10123952D01*
X9672762Y-10114429D01*
X9872762Y-10133476D02*
X9872762Y-10000143D01*
X9872762Y-10019190D02*
X9882286Y-10009667D01*
X9901333Y-10000143D01*
X9929905Y-10000143D01*
X9948952Y-10009667D01*
X9958476Y-10028714D01*
X9958476Y-10133476D01*
X9958476Y-10028714D02*
X9968000Y-10009667D01*
X9987048Y-10000143D01*
X10015619Y-10000143D01*
X10034667Y-10009667D01*
X10044190Y-10028714D01*
X10044190Y-10133476D01*
X10139429Y-10133476D02*
X10139429Y-10000143D01*
X10139429Y-10019190D02*
X10148952Y-10009667D01*
X10168000Y-10000143D01*
X10196571Y-10000143D01*
X10215619Y-10009667D01*
X10225143Y-10028714D01*
X10225143Y-10133476D01*
X10225143Y-10028714D02*
X10234667Y-10009667D01*
X10253714Y-10000143D01*
X10282286Y-10000143D01*
X10301333Y-10009667D01*
X10310857Y-10028714D01*
X10310857Y-10133476D01*
X10701333Y-9923952D02*
X10529905Y-10181095D01*
X10958476Y-9933476D02*
X10977524Y-9933476D01*
X10996571Y-9943000D01*
X11006095Y-9952524D01*
X11015619Y-9971571D01*
X11025143Y-10009667D01*
X11025143Y-10057286D01*
X11015619Y-10095381D01*
X11006095Y-10114429D01*
X10996571Y-10123952D01*
X10977524Y-10133476D01*
X10958476Y-10133476D01*
X10939429Y-10123952D01*
X10929905Y-10114429D01*
X10920381Y-10095381D01*
X10910857Y-10057286D01*
X10910857Y-10009667D01*
X10920381Y-9971571D01*
X10929905Y-9952524D01*
X10939429Y-9943000D01*
X10958476Y-9933476D01*
X11110857Y-10114429D02*
X11120381Y-10123952D01*
X11110857Y-10133476D01*
X11101333Y-10123952D01*
X11110857Y-10114429D01*
X11110857Y-10133476D01*
X11244190Y-9933476D02*
X11263238Y-9933476D01*
X11282286Y-9943000D01*
X11291809Y-9952524D01*
X11301333Y-9971571D01*
X11310857Y-10009667D01*
X11310857Y-10057286D01*
X11301333Y-10095381D01*
X11291809Y-10114429D01*
X11282286Y-10123952D01*
X11263238Y-10133476D01*
X11244190Y-10133476D01*
X11225143Y-10123952D01*
X11215619Y-10114429D01*
X11206095Y-10095381D01*
X11196571Y-10057286D01*
X11196571Y-10009667D01*
X11206095Y-9971571D01*
X11215619Y-9952524D01*
X11225143Y-9943000D01*
X11244190Y-9933476D01*
X11387048Y-9952524D02*
X11396571Y-9943000D01*
X11415619Y-9933476D01*
X11463238Y-9933476D01*
X11482286Y-9943000D01*
X11491809Y-9952524D01*
X11501333Y-9971571D01*
X11501333Y-9990619D01*
X11491809Y-10019190D01*
X11377524Y-10133476D01*
X11501333Y-10133476D01*
X11682286Y-9933476D02*
X11587048Y-9933476D01*
X11577524Y-10028714D01*
X11587048Y-10019190D01*
X11606095Y-10009667D01*
X11653714Y-10009667D01*
X11672762Y-10019190D01*
X11682286Y-10028714D01*
X11691809Y-10047762D01*
X11691809Y-10095381D01*
X11682286Y-10114429D01*
X11672762Y-10123952D01*
X11653714Y-10133476D01*
X11606095Y-10133476D01*
X11587048Y-10123952D01*
X11577524Y-10114429D01*
X11815619Y-9933476D02*
X11834667Y-9933476D01*
X11853714Y-9943000D01*
X11863238Y-9952524D01*
X11872762Y-9971571D01*
X11882286Y-10009667D01*
X11882286Y-10057286D01*
X11872762Y-10095381D01*
X11863238Y-10114429D01*
X11853714Y-10123952D01*
X11834667Y-10133476D01*
X11815619Y-10133476D01*
X11796571Y-10123952D01*
X11787048Y-10114429D01*
X11777524Y-10095381D01*
X11768000Y-10057286D01*
X11768000Y-10009667D01*
X11777524Y-9971571D01*
X11787048Y-9952524D01*
X11796571Y-9943000D01*
X11815619Y-9933476D01*
X11958476Y-9933476D02*
X11958476Y-9971571D01*
X12034667Y-9933476D02*
X12034667Y-9971571D01*
X12329905Y-10209667D02*
X12320381Y-10200143D01*
X12301333Y-10171571D01*
X12291809Y-10152524D01*
X12282286Y-10123952D01*
X12272762Y-10076333D01*
X12272762Y-10038238D01*
X12282286Y-9990619D01*
X12291809Y-9962048D01*
X12301333Y-9943000D01*
X12320381Y-9914429D01*
X12329905Y-9904905D01*
X12491809Y-10000143D02*
X12491809Y-10133476D01*
X12444190Y-9923952D02*
X12396571Y-10066810D01*
X12520381Y-10066810D01*
X12587048Y-9952524D02*
X12596571Y-9943000D01*
X12615619Y-9933476D01*
X12663238Y-9933476D01*
X12682286Y-9943000D01*
X12691809Y-9952524D01*
X12701333Y-9971571D01*
X12701333Y-9990619D01*
X12691809Y-10019190D01*
X12577524Y-10133476D01*
X12701333Y-10133476D01*
X12939428Y-10133476D02*
X12939428Y-9933476D01*
X13025143Y-10133476D02*
X13025143Y-10028714D01*
X13015619Y-10009667D01*
X12996571Y-10000143D01*
X12968000Y-10000143D01*
X12948952Y-10009667D01*
X12939428Y-10019190D01*
X13148952Y-10133476D02*
X13129905Y-10123952D01*
X13120381Y-10114429D01*
X13110857Y-10095381D01*
X13110857Y-10038238D01*
X13120381Y-10019190D01*
X13129905Y-10009667D01*
X13148952Y-10000143D01*
X13177524Y-10000143D01*
X13196571Y-10009667D01*
X13206095Y-10019190D01*
X13215619Y-10038238D01*
X13215619Y-10095381D01*
X13206095Y-10114429D01*
X13196571Y-10123952D01*
X13177524Y-10133476D01*
X13148952Y-10133476D01*
X13329905Y-10133476D02*
X13310857Y-10123952D01*
X13301333Y-10104905D01*
X13301333Y-9933476D01*
X13482286Y-10123952D02*
X13463238Y-10133476D01*
X13425143Y-10133476D01*
X13406095Y-10123952D01*
X13396571Y-10104905D01*
X13396571Y-10028714D01*
X13406095Y-10009667D01*
X13425143Y-10000143D01*
X13463238Y-10000143D01*
X13482286Y-10009667D01*
X13491809Y-10028714D01*
X13491809Y-10047762D01*
X13396571Y-10066810D01*
X13568000Y-10123952D02*
X13587048Y-10133476D01*
X13625143Y-10133476D01*
X13644190Y-10123952D01*
X13653714Y-10104905D01*
X13653714Y-10095381D01*
X13644190Y-10076333D01*
X13625143Y-10066810D01*
X13596571Y-10066810D01*
X13577524Y-10057286D01*
X13568000Y-10038238D01*
X13568000Y-10028714D01*
X13577524Y-10009667D01*
X13596571Y-10000143D01*
X13625143Y-10000143D01*
X13644190Y-10009667D01*
X13720381Y-10209667D02*
X13729905Y-10200143D01*
X13748952Y-10171571D01*
X13758476Y-10152524D01*
X13768000Y-10123952D01*
X13777524Y-10076333D01*
X13777524Y-10038238D01*
X13768000Y-9990619D01*
X13758476Y-9962048D01*
X13748952Y-9943000D01*
X13729905Y-9914429D01*
X13720381Y-9904905D01*
D13*
X8758000Y-10307000D02*
G75*
G03*
X8758000Y-10307000I-40000J0D01*
G01*
D11*
X9053714Y-10197476D02*
X9072762Y-10197476D01*
X9091810Y-10207000D01*
X9101333Y-10216524D01*
X9110857Y-10235571D01*
X9120381Y-10273667D01*
X9120381Y-10321286D01*
X9110857Y-10359381D01*
X9101333Y-10378429D01*
X9091810Y-10387952D01*
X9072762Y-10397476D01*
X9053714Y-10397476D01*
X9034667Y-10387952D01*
X9025143Y-10378429D01*
X9015619Y-10359381D01*
X9006095Y-10321286D01*
X9006095Y-10273667D01*
X9015619Y-10235571D01*
X9025143Y-10216524D01*
X9034667Y-10207000D01*
X9053714Y-10197476D01*
X9206095Y-10378429D02*
X9215619Y-10387952D01*
X9206095Y-10397476D01*
X9196571Y-10387952D01*
X9206095Y-10378429D01*
X9206095Y-10397476D01*
X9329905Y-10283190D02*
X9310857Y-10273667D01*
X9301333Y-10264143D01*
X9291810Y-10245095D01*
X9291810Y-10235571D01*
X9301333Y-10216524D01*
X9310857Y-10207000D01*
X9329905Y-10197476D01*
X9368000Y-10197476D01*
X9387048Y-10207000D01*
X9396571Y-10216524D01*
X9406095Y-10235571D01*
X9406095Y-10245095D01*
X9396571Y-10264143D01*
X9387048Y-10273667D01*
X9368000Y-10283190D01*
X9329905Y-10283190D01*
X9310857Y-10292714D01*
X9301333Y-10302238D01*
X9291810Y-10321286D01*
X9291810Y-10359381D01*
X9301333Y-10378429D01*
X9310857Y-10387952D01*
X9329905Y-10397476D01*
X9368000Y-10397476D01*
X9387048Y-10387952D01*
X9396571Y-10378429D01*
X9406095Y-10359381D01*
X9406095Y-10321286D01*
X9396571Y-10302238D01*
X9387048Y-10292714D01*
X9368000Y-10283190D01*
X9529905Y-10197476D02*
X9548952Y-10197476D01*
X9568000Y-10207000D01*
X9577524Y-10216524D01*
X9587048Y-10235571D01*
X9596571Y-10273667D01*
X9596571Y-10321286D01*
X9587048Y-10359381D01*
X9577524Y-10378429D01*
X9568000Y-10387952D01*
X9548952Y-10397476D01*
X9529905Y-10397476D01*
X9510857Y-10387952D01*
X9501333Y-10378429D01*
X9491810Y-10359381D01*
X9482286Y-10321286D01*
X9482286Y-10273667D01*
X9491810Y-10235571D01*
X9501333Y-10216524D01*
X9510857Y-10207000D01*
X9529905Y-10197476D01*
X9720381Y-10197476D02*
X9739429Y-10197476D01*
X9758476Y-10207000D01*
X9768000Y-10216524D01*
X9777524Y-10235571D01*
X9787048Y-10273667D01*
X9787048Y-10321286D01*
X9777524Y-10359381D01*
X9768000Y-10378429D01*
X9758476Y-10387952D01*
X9739429Y-10397476D01*
X9720381Y-10397476D01*
X9701333Y-10387952D01*
X9691810Y-10378429D01*
X9682286Y-10359381D01*
X9672762Y-10321286D01*
X9672762Y-10273667D01*
X9682286Y-10235571D01*
X9691810Y-10216524D01*
X9701333Y-10207000D01*
X9720381Y-10197476D01*
X9872762Y-10397476D02*
X9872762Y-10264143D01*
X9872762Y-10283190D02*
X9882286Y-10273667D01*
X9901333Y-10264143D01*
X9929905Y-10264143D01*
X9948952Y-10273667D01*
X9958476Y-10292714D01*
X9958476Y-10397476D01*
X9958476Y-10292714D02*
X9968000Y-10273667D01*
X9987048Y-10264143D01*
X10015619Y-10264143D01*
X10034667Y-10273667D01*
X10044190Y-10292714D01*
X10044190Y-10397476D01*
X10139429Y-10397476D02*
X10139429Y-10264143D01*
X10139429Y-10283190D02*
X10148952Y-10273667D01*
X10168000Y-10264143D01*
X10196571Y-10264143D01*
X10215619Y-10273667D01*
X10225143Y-10292714D01*
X10225143Y-10397476D01*
X10225143Y-10292714D02*
X10234667Y-10273667D01*
X10253714Y-10264143D01*
X10282286Y-10264143D01*
X10301333Y-10273667D01*
X10310857Y-10292714D01*
X10310857Y-10397476D01*
X10701333Y-10187952D02*
X10529905Y-10445095D01*
X10958476Y-10197476D02*
X10977524Y-10197476D01*
X10996571Y-10207000D01*
X11006095Y-10216524D01*
X11015619Y-10235571D01*
X11025143Y-10273667D01*
X11025143Y-10321286D01*
X11015619Y-10359381D01*
X11006095Y-10378429D01*
X10996571Y-10387952D01*
X10977524Y-10397476D01*
X10958476Y-10397476D01*
X10939429Y-10387952D01*
X10929905Y-10378429D01*
X10920381Y-10359381D01*
X10910857Y-10321286D01*
X10910857Y-10273667D01*
X10920381Y-10235571D01*
X10929905Y-10216524D01*
X10939429Y-10207000D01*
X10958476Y-10197476D01*
X11110857Y-10378429D02*
X11120381Y-10387952D01*
X11110857Y-10397476D01*
X11101333Y-10387952D01*
X11110857Y-10378429D01*
X11110857Y-10397476D01*
X11244190Y-10197476D02*
X11263238Y-10197476D01*
X11282286Y-10207000D01*
X11291809Y-10216524D01*
X11301333Y-10235571D01*
X11310857Y-10273667D01*
X11310857Y-10321286D01*
X11301333Y-10359381D01*
X11291809Y-10378429D01*
X11282286Y-10387952D01*
X11263238Y-10397476D01*
X11244190Y-10397476D01*
X11225143Y-10387952D01*
X11215619Y-10378429D01*
X11206095Y-10359381D01*
X11196571Y-10321286D01*
X11196571Y-10273667D01*
X11206095Y-10235571D01*
X11215619Y-10216524D01*
X11225143Y-10207000D01*
X11244190Y-10197476D01*
X11377524Y-10197476D02*
X11501333Y-10197476D01*
X11434667Y-10273667D01*
X11463238Y-10273667D01*
X11482286Y-10283190D01*
X11491809Y-10292714D01*
X11501333Y-10311762D01*
X11501333Y-10359381D01*
X11491809Y-10378429D01*
X11482286Y-10387952D01*
X11463238Y-10397476D01*
X11406095Y-10397476D01*
X11387048Y-10387952D01*
X11377524Y-10378429D01*
X11691809Y-10397476D02*
X11577524Y-10397476D01*
X11634667Y-10397476D02*
X11634667Y-10197476D01*
X11615619Y-10226048D01*
X11596571Y-10245095D01*
X11577524Y-10254619D01*
X11872762Y-10197476D02*
X11777524Y-10197476D01*
X11768000Y-10292714D01*
X11777524Y-10283190D01*
X11796571Y-10273667D01*
X11844190Y-10273667D01*
X11863238Y-10283190D01*
X11872762Y-10292714D01*
X11882286Y-10311762D01*
X11882286Y-10359381D01*
X11872762Y-10378429D01*
X11863238Y-10387952D01*
X11844190Y-10397476D01*
X11796571Y-10397476D01*
X11777524Y-10387952D01*
X11768000Y-10378429D01*
X11958476Y-10197476D02*
X11958476Y-10235571D01*
X12034667Y-10197476D02*
X12034667Y-10235571D01*
X12329905Y-10473667D02*
X12320381Y-10464143D01*
X12301333Y-10435571D01*
X12291809Y-10416524D01*
X12282286Y-10387952D01*
X12272762Y-10340333D01*
X12272762Y-10302238D01*
X12282286Y-10254619D01*
X12291809Y-10226048D01*
X12301333Y-10207000D01*
X12320381Y-10178429D01*
X12329905Y-10168905D01*
X12510857Y-10397476D02*
X12396571Y-10397476D01*
X12453714Y-10397476D02*
X12453714Y-10197476D01*
X12434667Y-10226048D01*
X12415619Y-10245095D01*
X12396571Y-10254619D01*
X12748952Y-10397476D02*
X12748952Y-10197476D01*
X12834667Y-10397476D02*
X12834667Y-10292714D01*
X12825143Y-10273667D01*
X12806095Y-10264143D01*
X12777524Y-10264143D01*
X12758476Y-10273667D01*
X12748952Y-10283190D01*
X12958476Y-10397476D02*
X12939428Y-10387952D01*
X12929905Y-10378429D01*
X12920381Y-10359381D01*
X12920381Y-10302238D01*
X12929905Y-10283190D01*
X12939428Y-10273667D01*
X12958476Y-10264143D01*
X12987048Y-10264143D01*
X13006095Y-10273667D01*
X13015619Y-10283190D01*
X13025143Y-10302238D01*
X13025143Y-10359381D01*
X13015619Y-10378429D01*
X13006095Y-10387952D01*
X12987048Y-10397476D01*
X12958476Y-10397476D01*
X13139428Y-10397476D02*
X13120381Y-10387952D01*
X13110857Y-10368905D01*
X13110857Y-10197476D01*
X13291809Y-10387952D02*
X13272762Y-10397476D01*
X13234667Y-10397476D01*
X13215619Y-10387952D01*
X13206095Y-10368905D01*
X13206095Y-10292714D01*
X13215619Y-10273667D01*
X13234667Y-10264143D01*
X13272762Y-10264143D01*
X13291809Y-10273667D01*
X13301333Y-10292714D01*
X13301333Y-10311762D01*
X13206095Y-10330810D01*
X13368000Y-10473667D02*
X13377524Y-10464143D01*
X13396571Y-10435571D01*
X13406095Y-10416524D01*
X13415619Y-10387952D01*
X13425143Y-10340333D01*
X13425143Y-10302238D01*
X13415619Y-10254619D01*
X13406095Y-10226048D01*
X13396571Y-10207000D01*
X13377524Y-10178429D01*
X13368000Y-10168905D01*
D13*
X8718000Y-10531000D02*
X8718000Y-10611000D01*
X8678000Y-10571000D02*
X8758000Y-10571000D01*
D11*
X9053714Y-10461476D02*
X9072762Y-10461476D01*
X9091810Y-10471000D01*
X9101333Y-10480524D01*
X9110857Y-10499571D01*
X9120381Y-10537667D01*
X9120381Y-10585286D01*
X9110857Y-10623381D01*
X9101333Y-10642429D01*
X9091810Y-10651952D01*
X9072762Y-10661476D01*
X9053714Y-10661476D01*
X9034667Y-10651952D01*
X9025143Y-10642429D01*
X9015619Y-10623381D01*
X9006095Y-10585286D01*
X9006095Y-10537667D01*
X9015619Y-10499571D01*
X9025143Y-10480524D01*
X9034667Y-10471000D01*
X9053714Y-10461476D01*
X9206095Y-10642429D02*
X9215619Y-10651952D01*
X9206095Y-10661476D01*
X9196571Y-10651952D01*
X9206095Y-10642429D01*
X9206095Y-10661476D01*
X9329905Y-10547190D02*
X9310857Y-10537667D01*
X9301333Y-10528143D01*
X9291810Y-10509095D01*
X9291810Y-10499571D01*
X9301333Y-10480524D01*
X9310857Y-10471000D01*
X9329905Y-10461476D01*
X9368000Y-10461476D01*
X9387048Y-10471000D01*
X9396571Y-10480524D01*
X9406095Y-10499571D01*
X9406095Y-10509095D01*
X9396571Y-10528143D01*
X9387048Y-10537667D01*
X9368000Y-10547190D01*
X9329905Y-10547190D01*
X9310857Y-10556714D01*
X9301333Y-10566238D01*
X9291810Y-10585286D01*
X9291810Y-10623381D01*
X9301333Y-10642429D01*
X9310857Y-10651952D01*
X9329905Y-10661476D01*
X9368000Y-10661476D01*
X9387048Y-10651952D01*
X9396571Y-10642429D01*
X9406095Y-10623381D01*
X9406095Y-10585286D01*
X9396571Y-10566238D01*
X9387048Y-10556714D01*
X9368000Y-10547190D01*
X9529905Y-10461476D02*
X9548952Y-10461476D01*
X9568000Y-10471000D01*
X9577524Y-10480524D01*
X9587048Y-10499571D01*
X9596571Y-10537667D01*
X9596571Y-10585286D01*
X9587048Y-10623381D01*
X9577524Y-10642429D01*
X9568000Y-10651952D01*
X9548952Y-10661476D01*
X9529905Y-10661476D01*
X9510857Y-10651952D01*
X9501333Y-10642429D01*
X9491810Y-10623381D01*
X9482286Y-10585286D01*
X9482286Y-10537667D01*
X9491810Y-10499571D01*
X9501333Y-10480524D01*
X9510857Y-10471000D01*
X9529905Y-10461476D01*
X9720381Y-10461476D02*
X9739429Y-10461476D01*
X9758476Y-10471000D01*
X9768000Y-10480524D01*
X9777524Y-10499571D01*
X9787048Y-10537667D01*
X9787048Y-10585286D01*
X9777524Y-10623381D01*
X9768000Y-10642429D01*
X9758476Y-10651952D01*
X9739429Y-10661476D01*
X9720381Y-10661476D01*
X9701333Y-10651952D01*
X9691810Y-10642429D01*
X9682286Y-10623381D01*
X9672762Y-10585286D01*
X9672762Y-10537667D01*
X9682286Y-10499571D01*
X9691810Y-10480524D01*
X9701333Y-10471000D01*
X9720381Y-10461476D01*
X9872762Y-10661476D02*
X9872762Y-10528143D01*
X9872762Y-10547190D02*
X9882286Y-10537667D01*
X9901333Y-10528143D01*
X9929905Y-10528143D01*
X9948952Y-10537667D01*
X9958476Y-10556714D01*
X9958476Y-10661476D01*
X9958476Y-10556714D02*
X9968000Y-10537667D01*
X9987048Y-10528143D01*
X10015619Y-10528143D01*
X10034667Y-10537667D01*
X10044190Y-10556714D01*
X10044190Y-10661476D01*
X10139429Y-10661476D02*
X10139429Y-10528143D01*
X10139429Y-10547190D02*
X10148952Y-10537667D01*
X10168000Y-10528143D01*
X10196571Y-10528143D01*
X10215619Y-10537667D01*
X10225143Y-10556714D01*
X10225143Y-10661476D01*
X10225143Y-10556714D02*
X10234667Y-10537667D01*
X10253714Y-10528143D01*
X10282286Y-10528143D01*
X10301333Y-10537667D01*
X10310857Y-10556714D01*
X10310857Y-10661476D01*
X10701333Y-10451952D02*
X10529905Y-10709095D01*
X10958476Y-10461476D02*
X10977524Y-10461476D01*
X10996571Y-10471000D01*
X11006095Y-10480524D01*
X11015619Y-10499571D01*
X11025143Y-10537667D01*
X11025143Y-10585286D01*
X11015619Y-10623381D01*
X11006095Y-10642429D01*
X10996571Y-10651952D01*
X10977524Y-10661476D01*
X10958476Y-10661476D01*
X10939429Y-10651952D01*
X10929905Y-10642429D01*
X10920381Y-10623381D01*
X10910857Y-10585286D01*
X10910857Y-10537667D01*
X10920381Y-10499571D01*
X10929905Y-10480524D01*
X10939429Y-10471000D01*
X10958476Y-10461476D01*
X11110857Y-10642429D02*
X11120381Y-10651952D01*
X11110857Y-10661476D01*
X11101333Y-10651952D01*
X11110857Y-10642429D01*
X11110857Y-10661476D01*
X11244190Y-10461476D02*
X11263238Y-10461476D01*
X11282286Y-10471000D01*
X11291809Y-10480524D01*
X11301333Y-10499571D01*
X11310857Y-10537667D01*
X11310857Y-10585286D01*
X11301333Y-10623381D01*
X11291809Y-10642429D01*
X11282286Y-10651952D01*
X11263238Y-10661476D01*
X11244190Y-10661476D01*
X11225143Y-10651952D01*
X11215619Y-10642429D01*
X11206095Y-10623381D01*
X11196571Y-10585286D01*
X11196571Y-10537667D01*
X11206095Y-10499571D01*
X11215619Y-10480524D01*
X11225143Y-10471000D01*
X11244190Y-10461476D01*
X11377524Y-10461476D02*
X11501333Y-10461476D01*
X11434667Y-10537667D01*
X11463238Y-10537667D01*
X11482286Y-10547190D01*
X11491809Y-10556714D01*
X11501333Y-10575762D01*
X11501333Y-10623381D01*
X11491809Y-10642429D01*
X11482286Y-10651952D01*
X11463238Y-10661476D01*
X11406095Y-10661476D01*
X11387048Y-10651952D01*
X11377524Y-10642429D01*
X11691809Y-10661476D02*
X11577524Y-10661476D01*
X11634667Y-10661476D02*
X11634667Y-10461476D01*
X11615619Y-10490048D01*
X11596571Y-10509095D01*
X11577524Y-10518619D01*
X11872762Y-10461476D02*
X11777524Y-10461476D01*
X11768000Y-10556714D01*
X11777524Y-10547190D01*
X11796571Y-10537667D01*
X11844190Y-10537667D01*
X11863238Y-10547190D01*
X11872762Y-10556714D01*
X11882286Y-10575762D01*
X11882286Y-10623381D01*
X11872762Y-10642429D01*
X11863238Y-10651952D01*
X11844190Y-10661476D01*
X11796571Y-10661476D01*
X11777524Y-10651952D01*
X11768000Y-10642429D01*
X11958476Y-10461476D02*
X11958476Y-10499571D01*
X12034667Y-10461476D02*
X12034667Y-10499571D01*
X12329905Y-10737667D02*
X12320381Y-10728143D01*
X12301333Y-10699571D01*
X12291809Y-10680524D01*
X12282286Y-10651952D01*
X12272762Y-10604333D01*
X12272762Y-10566238D01*
X12282286Y-10518619D01*
X12291809Y-10490048D01*
X12301333Y-10471000D01*
X12320381Y-10442429D01*
X12329905Y-10432905D01*
X12396571Y-10480524D02*
X12406095Y-10471000D01*
X12425143Y-10461476D01*
X12472762Y-10461476D01*
X12491809Y-10471000D01*
X12501333Y-10480524D01*
X12510857Y-10499571D01*
X12510857Y-10518619D01*
X12501333Y-10547190D01*
X12387048Y-10661476D01*
X12510857Y-10661476D01*
X12748952Y-10661476D02*
X12748952Y-10461476D01*
X12834667Y-10661476D02*
X12834667Y-10556714D01*
X12825143Y-10537667D01*
X12806095Y-10528143D01*
X12777524Y-10528143D01*
X12758476Y-10537667D01*
X12748952Y-10547190D01*
X12958476Y-10661476D02*
X12939428Y-10651952D01*
X12929905Y-10642429D01*
X12920381Y-10623381D01*
X12920381Y-10566238D01*
X12929905Y-10547190D01*
X12939428Y-10537667D01*
X12958476Y-10528143D01*
X12987048Y-10528143D01*
X13006095Y-10537667D01*
X13015619Y-10547190D01*
X13025143Y-10566238D01*
X13025143Y-10623381D01*
X13015619Y-10642429D01*
X13006095Y-10651952D01*
X12987048Y-10661476D01*
X12958476Y-10661476D01*
X13139428Y-10661476D02*
X13120381Y-10651952D01*
X13110857Y-10632905D01*
X13110857Y-10461476D01*
X13291809Y-10651952D02*
X13272762Y-10661476D01*
X13234667Y-10661476D01*
X13215619Y-10651952D01*
X13206095Y-10632905D01*
X13206095Y-10556714D01*
X13215619Y-10537667D01*
X13234667Y-10528143D01*
X13272762Y-10528143D01*
X13291809Y-10537667D01*
X13301333Y-10556714D01*
X13301333Y-10575762D01*
X13206095Y-10594810D01*
X13377524Y-10651952D02*
X13396571Y-10661476D01*
X13434667Y-10661476D01*
X13453714Y-10651952D01*
X13463238Y-10632905D01*
X13463238Y-10623381D01*
X13453714Y-10604333D01*
X13434667Y-10594810D01*
X13406095Y-10594810D01*
X13387048Y-10585286D01*
X13377524Y-10566238D01*
X13377524Y-10556714D01*
X13387048Y-10537667D01*
X13406095Y-10528143D01*
X13434667Y-10528143D01*
X13453714Y-10537667D01*
X13529905Y-10737667D02*
X13539428Y-10728143D01*
X13558476Y-10699571D01*
X13568000Y-10680524D01*
X13577524Y-10651952D01*
X13587048Y-10604333D01*
X13587048Y-10566238D01*
X13577524Y-10518619D01*
X13568000Y-10490048D01*
X13558476Y-10471000D01*
X13539428Y-10442429D01*
X13529905Y-10432905D01*
D14*
X8744088Y-10868588D02*
X8744088Y-10801412D01*
X8676912Y-10801412D01*
X8676912Y-10868588D01*
X8744088Y-10868588D01*
D11*
X9053714Y-10725476D02*
X9072762Y-10725476D01*
X9091810Y-10735000D01*
X9101333Y-10744524D01*
X9110857Y-10763571D01*
X9120381Y-10801667D01*
X9120381Y-10849286D01*
X9110857Y-10887381D01*
X9101333Y-10906429D01*
X9091810Y-10915952D01*
X9072762Y-10925476D01*
X9053714Y-10925476D01*
X9034667Y-10915952D01*
X9025143Y-10906429D01*
X9015619Y-10887381D01*
X9006095Y-10849286D01*
X9006095Y-10801667D01*
X9015619Y-10763571D01*
X9025143Y-10744524D01*
X9034667Y-10735000D01*
X9053714Y-10725476D01*
X9206095Y-10906429D02*
X9215619Y-10915952D01*
X9206095Y-10925476D01*
X9196571Y-10915952D01*
X9206095Y-10906429D01*
X9206095Y-10925476D01*
X9310857Y-10925476D02*
X9348952Y-10925476D01*
X9368000Y-10915952D01*
X9377524Y-10906429D01*
X9396571Y-10877857D01*
X9406095Y-10839762D01*
X9406095Y-10763571D01*
X9396571Y-10744524D01*
X9387048Y-10735000D01*
X9368000Y-10725476D01*
X9329905Y-10725476D01*
X9310857Y-10735000D01*
X9301333Y-10744524D01*
X9291810Y-10763571D01*
X9291810Y-10811190D01*
X9301333Y-10830238D01*
X9310857Y-10839762D01*
X9329905Y-10849286D01*
X9368000Y-10849286D01*
X9387048Y-10839762D01*
X9396571Y-10830238D01*
X9406095Y-10811190D01*
X9587048Y-10725476D02*
X9491810Y-10725476D01*
X9482286Y-10820714D01*
X9491810Y-10811190D01*
X9510857Y-10801667D01*
X9558476Y-10801667D01*
X9577524Y-10811190D01*
X9587048Y-10820714D01*
X9596571Y-10839762D01*
X9596571Y-10887381D01*
X9587048Y-10906429D01*
X9577524Y-10915952D01*
X9558476Y-10925476D01*
X9510857Y-10925476D01*
X9491810Y-10915952D01*
X9482286Y-10906429D01*
X9720381Y-10725476D02*
X9739429Y-10725476D01*
X9758476Y-10735000D01*
X9768000Y-10744524D01*
X9777524Y-10763571D01*
X9787048Y-10801667D01*
X9787048Y-10849286D01*
X9777524Y-10887381D01*
X9768000Y-10906429D01*
X9758476Y-10915952D01*
X9739429Y-10925476D01*
X9720381Y-10925476D01*
X9701333Y-10915952D01*
X9691810Y-10906429D01*
X9682286Y-10887381D01*
X9672762Y-10849286D01*
X9672762Y-10801667D01*
X9682286Y-10763571D01*
X9691810Y-10744524D01*
X9701333Y-10735000D01*
X9720381Y-10725476D01*
X9872762Y-10925476D02*
X9872762Y-10792143D01*
X9872762Y-10811190D02*
X9882286Y-10801667D01*
X9901333Y-10792143D01*
X9929905Y-10792143D01*
X9948952Y-10801667D01*
X9958476Y-10820714D01*
X9958476Y-10925476D01*
X9958476Y-10820714D02*
X9968000Y-10801667D01*
X9987048Y-10792143D01*
X10015619Y-10792143D01*
X10034667Y-10801667D01*
X10044190Y-10820714D01*
X10044190Y-10925476D01*
X10139429Y-10925476D02*
X10139429Y-10792143D01*
X10139429Y-10811190D02*
X10148952Y-10801667D01*
X10168000Y-10792143D01*
X10196571Y-10792143D01*
X10215619Y-10801667D01*
X10225143Y-10820714D01*
X10225143Y-10925476D01*
X10225143Y-10820714D02*
X10234667Y-10801667D01*
X10253714Y-10792143D01*
X10282286Y-10792143D01*
X10301333Y-10801667D01*
X10310857Y-10820714D01*
X10310857Y-10925476D01*
X10701333Y-10715952D02*
X10529905Y-10973095D01*
X10958476Y-10725476D02*
X10977524Y-10725476D01*
X10996571Y-10735000D01*
X11006095Y-10744524D01*
X11015619Y-10763571D01*
X11025143Y-10801667D01*
X11025143Y-10849286D01*
X11015619Y-10887381D01*
X11006095Y-10906429D01*
X10996571Y-10915952D01*
X10977524Y-10925476D01*
X10958476Y-10925476D01*
X10939429Y-10915952D01*
X10929905Y-10906429D01*
X10920381Y-10887381D01*
X10910857Y-10849286D01*
X10910857Y-10801667D01*
X10920381Y-10763571D01*
X10929905Y-10744524D01*
X10939429Y-10735000D01*
X10958476Y-10725476D01*
X11110857Y-10906429D02*
X11120381Y-10915952D01*
X11110857Y-10925476D01*
X11101333Y-10915952D01*
X11110857Y-10906429D01*
X11110857Y-10925476D01*
X11244190Y-10725476D02*
X11263238Y-10725476D01*
X11282286Y-10735000D01*
X11291809Y-10744524D01*
X11301333Y-10763571D01*
X11310857Y-10801667D01*
X11310857Y-10849286D01*
X11301333Y-10887381D01*
X11291809Y-10906429D01*
X11282286Y-10915952D01*
X11263238Y-10925476D01*
X11244190Y-10925476D01*
X11225143Y-10915952D01*
X11215619Y-10906429D01*
X11206095Y-10887381D01*
X11196571Y-10849286D01*
X11196571Y-10801667D01*
X11206095Y-10763571D01*
X11215619Y-10744524D01*
X11225143Y-10735000D01*
X11244190Y-10725476D01*
X11377524Y-10725476D02*
X11501333Y-10725476D01*
X11434667Y-10801667D01*
X11463238Y-10801667D01*
X11482286Y-10811190D01*
X11491809Y-10820714D01*
X11501333Y-10839762D01*
X11501333Y-10887381D01*
X11491809Y-10906429D01*
X11482286Y-10915952D01*
X11463238Y-10925476D01*
X11406095Y-10925476D01*
X11387048Y-10915952D01*
X11377524Y-10906429D01*
X11568000Y-10725476D02*
X11701333Y-10725476D01*
X11615619Y-10925476D01*
X11863238Y-10792143D02*
X11863238Y-10925476D01*
X11815619Y-10715952D02*
X11768000Y-10858810D01*
X11891809Y-10858810D01*
X11958476Y-10725476D02*
X11958476Y-10763571D01*
X12034667Y-10725476D02*
X12034667Y-10763571D01*
X12329905Y-11001667D02*
X12320381Y-10992143D01*
X12301333Y-10963571D01*
X12291809Y-10944524D01*
X12282286Y-10915952D01*
X12272762Y-10868333D01*
X12272762Y-10830238D01*
X12282286Y-10782619D01*
X12291809Y-10754048D01*
X12301333Y-10735000D01*
X12320381Y-10706429D01*
X12329905Y-10696905D01*
X12434667Y-10811190D02*
X12415619Y-10801667D01*
X12406095Y-10792143D01*
X12396571Y-10773095D01*
X12396571Y-10763571D01*
X12406095Y-10744524D01*
X12415619Y-10735000D01*
X12434667Y-10725476D01*
X12472762Y-10725476D01*
X12491809Y-10735000D01*
X12501333Y-10744524D01*
X12510857Y-10763571D01*
X12510857Y-10773095D01*
X12501333Y-10792143D01*
X12491809Y-10801667D01*
X12472762Y-10811190D01*
X12434667Y-10811190D01*
X12415619Y-10820714D01*
X12406095Y-10830238D01*
X12396571Y-10849286D01*
X12396571Y-10887381D01*
X12406095Y-10906429D01*
X12415619Y-10915952D01*
X12434667Y-10925476D01*
X12472762Y-10925476D01*
X12491809Y-10915952D01*
X12501333Y-10906429D01*
X12510857Y-10887381D01*
X12510857Y-10849286D01*
X12501333Y-10830238D01*
X12491809Y-10820714D01*
X12472762Y-10811190D01*
X12748952Y-10925476D02*
X12748952Y-10725476D01*
X12834667Y-10925476D02*
X12834667Y-10820714D01*
X12825143Y-10801667D01*
X12806095Y-10792143D01*
X12777524Y-10792143D01*
X12758476Y-10801667D01*
X12748952Y-10811190D01*
X12958476Y-10925476D02*
X12939428Y-10915952D01*
X12929905Y-10906429D01*
X12920381Y-10887381D01*
X12920381Y-10830238D01*
X12929905Y-10811190D01*
X12939428Y-10801667D01*
X12958476Y-10792143D01*
X12987048Y-10792143D01*
X13006095Y-10801667D01*
X13015619Y-10811190D01*
X13025143Y-10830238D01*
X13025143Y-10887381D01*
X13015619Y-10906429D01*
X13006095Y-10915952D01*
X12987048Y-10925476D01*
X12958476Y-10925476D01*
X13139428Y-10925476D02*
X13120381Y-10915952D01*
X13110857Y-10896905D01*
X13110857Y-10725476D01*
X13291809Y-10915952D02*
X13272762Y-10925476D01*
X13234667Y-10925476D01*
X13215619Y-10915952D01*
X13206095Y-10896905D01*
X13206095Y-10820714D01*
X13215619Y-10801667D01*
X13234667Y-10792143D01*
X13272762Y-10792143D01*
X13291809Y-10801667D01*
X13301333Y-10820714D01*
X13301333Y-10839762D01*
X13206095Y-10858810D01*
X13377524Y-10915952D02*
X13396571Y-10925476D01*
X13434667Y-10925476D01*
X13453714Y-10915952D01*
X13463238Y-10896905D01*
X13463238Y-10887381D01*
X13453714Y-10868333D01*
X13434667Y-10858810D01*
X13406095Y-10858810D01*
X13387048Y-10849286D01*
X13377524Y-10830238D01*
X13377524Y-10820714D01*
X13387048Y-10801667D01*
X13406095Y-10792143D01*
X13434667Y-10792143D01*
X13453714Y-10801667D01*
X13529905Y-11001667D02*
X13539428Y-10992143D01*
X13558476Y-10963571D01*
X13568000Y-10944524D01*
X13577524Y-10915952D01*
X13587048Y-10868333D01*
X13587048Y-10830238D01*
X13577524Y-10782619D01*
X13568000Y-10754048D01*
X13558476Y-10735000D01*
X13539428Y-10706429D01*
X13529905Y-10696905D01*
D15*
X8708000Y-11149000D02*
X8758000Y-11099000D01*
X8708000Y-11049000D01*
X8658000Y-11099000D01*
X8708000Y-11149000D01*
D11*
X9120381Y-11189476D02*
X9006095Y-11189476D01*
X9063238Y-11189476D02*
X9063238Y-10989476D01*
X9044190Y-11018048D01*
X9025143Y-11037095D01*
X9006095Y-11046619D01*
X9206095Y-11170429D02*
X9215619Y-11179952D01*
X9206095Y-11189476D01*
X9196571Y-11179952D01*
X9206095Y-11170429D01*
X9206095Y-11189476D01*
X9339429Y-10989476D02*
X9358476Y-10989476D01*
X9377524Y-10999000D01*
X9387048Y-11008524D01*
X9396571Y-11027571D01*
X9406095Y-11065667D01*
X9406095Y-11113286D01*
X9396571Y-11151381D01*
X9387048Y-11170429D01*
X9377524Y-11179952D01*
X9358476Y-11189476D01*
X9339429Y-11189476D01*
X9320381Y-11179952D01*
X9310857Y-11170429D01*
X9301333Y-11151381D01*
X9291810Y-11113286D01*
X9291810Y-11065667D01*
X9301333Y-11027571D01*
X9310857Y-11008524D01*
X9320381Y-10999000D01*
X9339429Y-10989476D01*
X9529905Y-10989476D02*
X9548952Y-10989476D01*
X9568000Y-10999000D01*
X9577524Y-11008524D01*
X9587048Y-11027571D01*
X9596571Y-11065667D01*
X9596571Y-11113286D01*
X9587048Y-11151381D01*
X9577524Y-11170429D01*
X9568000Y-11179952D01*
X9548952Y-11189476D01*
X9529905Y-11189476D01*
X9510857Y-11179952D01*
X9501333Y-11170429D01*
X9491810Y-11151381D01*
X9482286Y-11113286D01*
X9482286Y-11065667D01*
X9491810Y-11027571D01*
X9501333Y-11008524D01*
X9510857Y-10999000D01*
X9529905Y-10989476D01*
X9720381Y-10989476D02*
X9739429Y-10989476D01*
X9758476Y-10999000D01*
X9768000Y-11008524D01*
X9777524Y-11027571D01*
X9787048Y-11065667D01*
X9787048Y-11113286D01*
X9777524Y-11151381D01*
X9768000Y-11170429D01*
X9758476Y-11179952D01*
X9739429Y-11189476D01*
X9720381Y-11189476D01*
X9701333Y-11179952D01*
X9691810Y-11170429D01*
X9682286Y-11151381D01*
X9672762Y-11113286D01*
X9672762Y-11065667D01*
X9682286Y-11027571D01*
X9691810Y-11008524D01*
X9701333Y-10999000D01*
X9720381Y-10989476D01*
X9872762Y-11189476D02*
X9872762Y-11056143D01*
X9872762Y-11075190D02*
X9882286Y-11065667D01*
X9901333Y-11056143D01*
X9929905Y-11056143D01*
X9948952Y-11065667D01*
X9958476Y-11084714D01*
X9958476Y-11189476D01*
X9958476Y-11084714D02*
X9968000Y-11065667D01*
X9987048Y-11056143D01*
X10015619Y-11056143D01*
X10034667Y-11065667D01*
X10044190Y-11084714D01*
X10044190Y-11189476D01*
X10139429Y-11189476D02*
X10139429Y-11056143D01*
X10139429Y-11075190D02*
X10148952Y-11065667D01*
X10168000Y-11056143D01*
X10196571Y-11056143D01*
X10215619Y-11065667D01*
X10225143Y-11084714D01*
X10225143Y-11189476D01*
X10225143Y-11084714D02*
X10234667Y-11065667D01*
X10253714Y-11056143D01*
X10282286Y-11056143D01*
X10301333Y-11065667D01*
X10310857Y-11084714D01*
X10310857Y-11189476D01*
X10701333Y-10979952D02*
X10529905Y-11237095D01*
X10958476Y-10989476D02*
X10977524Y-10989476D01*
X10996571Y-10999000D01*
X11006095Y-11008524D01*
X11015619Y-11027571D01*
X11025143Y-11065667D01*
X11025143Y-11113286D01*
X11015619Y-11151381D01*
X11006095Y-11170429D01*
X10996571Y-11179952D01*
X10977524Y-11189476D01*
X10958476Y-11189476D01*
X10939429Y-11179952D01*
X10929905Y-11170429D01*
X10920381Y-11151381D01*
X10910857Y-11113286D01*
X10910857Y-11065667D01*
X10920381Y-11027571D01*
X10929905Y-11008524D01*
X10939429Y-10999000D01*
X10958476Y-10989476D01*
X11110857Y-11170429D02*
X11120381Y-11179952D01*
X11110857Y-11189476D01*
X11101333Y-11179952D01*
X11110857Y-11170429D01*
X11110857Y-11189476D01*
X11244190Y-10989476D02*
X11263238Y-10989476D01*
X11282286Y-10999000D01*
X11291809Y-11008524D01*
X11301333Y-11027571D01*
X11310857Y-11065667D01*
X11310857Y-11113286D01*
X11301333Y-11151381D01*
X11291809Y-11170429D01*
X11282286Y-11179952D01*
X11263238Y-11189476D01*
X11244190Y-11189476D01*
X11225143Y-11179952D01*
X11215619Y-11170429D01*
X11206095Y-11151381D01*
X11196571Y-11113286D01*
X11196571Y-11065667D01*
X11206095Y-11027571D01*
X11215619Y-11008524D01*
X11225143Y-10999000D01*
X11244190Y-10989476D01*
X11377524Y-10989476D02*
X11501333Y-10989476D01*
X11434667Y-11065667D01*
X11463238Y-11065667D01*
X11482286Y-11075190D01*
X11491809Y-11084714D01*
X11501333Y-11103762D01*
X11501333Y-11151381D01*
X11491809Y-11170429D01*
X11482286Y-11179952D01*
X11463238Y-11189476D01*
X11406095Y-11189476D01*
X11387048Y-11179952D01*
X11377524Y-11170429D01*
X11596571Y-11189476D02*
X11634667Y-11189476D01*
X11653714Y-11179952D01*
X11663238Y-11170429D01*
X11682286Y-11141857D01*
X11691809Y-11103762D01*
X11691809Y-11027571D01*
X11682286Y-11008524D01*
X11672762Y-10999000D01*
X11653714Y-10989476D01*
X11615619Y-10989476D01*
X11596571Y-10999000D01*
X11587048Y-11008524D01*
X11577524Y-11027571D01*
X11577524Y-11075190D01*
X11587048Y-11094238D01*
X11596571Y-11103762D01*
X11615619Y-11113286D01*
X11653714Y-11113286D01*
X11672762Y-11103762D01*
X11682286Y-11094238D01*
X11691809Y-11075190D01*
X11863238Y-11056143D02*
X11863238Y-11189476D01*
X11815619Y-10979952D02*
X11768000Y-11122810D01*
X11891809Y-11122810D01*
X11958476Y-10989476D02*
X11958476Y-11027571D01*
X12034667Y-10989476D02*
X12034667Y-11027571D01*
X12329905Y-11265667D02*
X12320381Y-11256143D01*
X12301333Y-11227571D01*
X12291809Y-11208524D01*
X12282286Y-11179952D01*
X12272762Y-11132333D01*
X12272762Y-11094238D01*
X12282286Y-11046619D01*
X12291809Y-11018048D01*
X12301333Y-10999000D01*
X12320381Y-10970429D01*
X12329905Y-10960905D01*
X12491809Y-10989476D02*
X12453714Y-10989476D01*
X12434667Y-10999000D01*
X12425143Y-11008524D01*
X12406095Y-11037095D01*
X12396571Y-11075190D01*
X12396571Y-11151381D01*
X12406095Y-11170429D01*
X12415619Y-11179952D01*
X12434667Y-11189476D01*
X12472762Y-11189476D01*
X12491809Y-11179952D01*
X12501333Y-11170429D01*
X12510857Y-11151381D01*
X12510857Y-11103762D01*
X12501333Y-11084714D01*
X12491809Y-11075190D01*
X12472762Y-11065667D01*
X12434667Y-11065667D01*
X12415619Y-11075190D01*
X12406095Y-11084714D01*
X12396571Y-11103762D01*
X12682286Y-11056143D02*
X12682286Y-11189476D01*
X12634667Y-10979952D02*
X12587048Y-11122810D01*
X12710857Y-11122810D01*
X12939428Y-11189476D02*
X12939428Y-10989476D01*
X13025143Y-11189476D02*
X13025143Y-11084714D01*
X13015619Y-11065667D01*
X12996571Y-11056143D01*
X12968000Y-11056143D01*
X12948952Y-11065667D01*
X12939428Y-11075190D01*
X13148952Y-11189476D02*
X13129905Y-11179952D01*
X13120381Y-11170429D01*
X13110857Y-11151381D01*
X13110857Y-11094238D01*
X13120381Y-11075190D01*
X13129905Y-11065667D01*
X13148952Y-11056143D01*
X13177524Y-11056143D01*
X13196571Y-11065667D01*
X13206095Y-11075190D01*
X13215619Y-11094238D01*
X13215619Y-11151381D01*
X13206095Y-11170429D01*
X13196571Y-11179952D01*
X13177524Y-11189476D01*
X13148952Y-11189476D01*
X13329905Y-11189476D02*
X13310857Y-11179952D01*
X13301333Y-11160905D01*
X13301333Y-10989476D01*
X13482286Y-11179952D02*
X13463238Y-11189476D01*
X13425143Y-11189476D01*
X13406095Y-11179952D01*
X13396571Y-11160905D01*
X13396571Y-11084714D01*
X13406095Y-11065667D01*
X13425143Y-11056143D01*
X13463238Y-11056143D01*
X13482286Y-11065667D01*
X13491809Y-11084714D01*
X13491809Y-11103762D01*
X13396571Y-11122810D01*
X13568000Y-11179952D02*
X13587048Y-11189476D01*
X13625143Y-11189476D01*
X13644190Y-11179952D01*
X13653714Y-11160905D01*
X13653714Y-11151381D01*
X13644190Y-11132333D01*
X13625143Y-11122810D01*
X13596571Y-11122810D01*
X13577524Y-11113286D01*
X13568000Y-11094238D01*
X13568000Y-11084714D01*
X13577524Y-11065667D01*
X13596571Y-11056143D01*
X13625143Y-11056143D01*
X13644190Y-11065667D01*
X13720381Y-11265667D02*
X13729905Y-11256143D01*
X13748952Y-11227571D01*
X13758476Y-11208524D01*
X13768000Y-11179952D01*
X13777524Y-11132333D01*
X13777524Y-11094238D01*
X13768000Y-11046619D01*
X13758476Y-11018048D01*
X13748952Y-10999000D01*
X13729905Y-10970429D01*
X13720381Y-10960905D01*
D16*
X8656400Y-11312200D02*
X8758000Y-11413800D01*
X8758000Y-11312200D02*
X8656400Y-11413800D01*
X8758000Y-11363000D02*
G75*
G03*
X8758000Y-11363000I-50800J0D01*
G01*
D11*
X9120381Y-11453476D02*
X9006095Y-11453476D01*
X9063238Y-11453476D02*
X9063238Y-11253476D01*
X9044190Y-11282048D01*
X9025143Y-11301095D01*
X9006095Y-11310619D01*
X9206095Y-11434428D02*
X9215619Y-11443952D01*
X9206095Y-11453476D01*
X9196571Y-11443952D01*
X9206095Y-11434428D01*
X9206095Y-11453476D01*
X9339429Y-11253476D02*
X9358476Y-11253476D01*
X9377524Y-11263000D01*
X9387048Y-11272524D01*
X9396571Y-11291571D01*
X9406095Y-11329667D01*
X9406095Y-11377286D01*
X9396571Y-11415381D01*
X9387048Y-11434428D01*
X9377524Y-11443952D01*
X9358476Y-11453476D01*
X9339429Y-11453476D01*
X9320381Y-11443952D01*
X9310857Y-11434428D01*
X9301333Y-11415381D01*
X9291810Y-11377286D01*
X9291810Y-11329667D01*
X9301333Y-11291571D01*
X9310857Y-11272524D01*
X9320381Y-11263000D01*
X9339429Y-11253476D01*
X9596571Y-11453476D02*
X9482286Y-11453476D01*
X9539429Y-11453476D02*
X9539429Y-11253476D01*
X9520381Y-11282048D01*
X9501333Y-11301095D01*
X9482286Y-11310619D01*
X9768000Y-11253476D02*
X9729905Y-11253476D01*
X9710857Y-11263000D01*
X9701333Y-11272524D01*
X9682286Y-11301095D01*
X9672762Y-11339190D01*
X9672762Y-11415381D01*
X9682286Y-11434428D01*
X9691810Y-11443952D01*
X9710857Y-11453476D01*
X9748952Y-11453476D01*
X9768000Y-11443952D01*
X9777524Y-11434428D01*
X9787048Y-11415381D01*
X9787048Y-11367762D01*
X9777524Y-11348714D01*
X9768000Y-11339190D01*
X9748952Y-11329667D01*
X9710857Y-11329667D01*
X9691810Y-11339190D01*
X9682286Y-11348714D01*
X9672762Y-11367762D01*
X9872762Y-11453476D02*
X9872762Y-11320143D01*
X9872762Y-11339190D02*
X9882286Y-11329667D01*
X9901333Y-11320143D01*
X9929905Y-11320143D01*
X9948952Y-11329667D01*
X9958476Y-11348714D01*
X9958476Y-11453476D01*
X9958476Y-11348714D02*
X9968000Y-11329667D01*
X9987048Y-11320143D01*
X10015619Y-11320143D01*
X10034667Y-11329667D01*
X10044190Y-11348714D01*
X10044190Y-11453476D01*
X10139429Y-11453476D02*
X10139429Y-11320143D01*
X10139429Y-11339190D02*
X10148952Y-11329667D01*
X10168000Y-11320143D01*
X10196571Y-11320143D01*
X10215619Y-11329667D01*
X10225143Y-11348714D01*
X10225143Y-11453476D01*
X10225143Y-11348714D02*
X10234667Y-11329667D01*
X10253714Y-11320143D01*
X10282286Y-11320143D01*
X10301333Y-11329667D01*
X10310857Y-11348714D01*
X10310857Y-11453476D01*
X10701333Y-11243952D02*
X10529905Y-11501095D01*
X10958476Y-11253476D02*
X10977524Y-11253476D01*
X10996571Y-11263000D01*
X11006095Y-11272524D01*
X11015619Y-11291571D01*
X11025143Y-11329667D01*
X11025143Y-11377286D01*
X11015619Y-11415381D01*
X11006095Y-11434428D01*
X10996571Y-11443952D01*
X10977524Y-11453476D01*
X10958476Y-11453476D01*
X10939429Y-11443952D01*
X10929905Y-11434428D01*
X10920381Y-11415381D01*
X10910857Y-11377286D01*
X10910857Y-11329667D01*
X10920381Y-11291571D01*
X10929905Y-11272524D01*
X10939429Y-11263000D01*
X10958476Y-11253476D01*
X11110857Y-11434428D02*
X11120381Y-11443952D01*
X11110857Y-11453476D01*
X11101333Y-11443952D01*
X11110857Y-11434428D01*
X11110857Y-11453476D01*
X11244190Y-11253476D02*
X11263238Y-11253476D01*
X11282286Y-11263000D01*
X11291809Y-11272524D01*
X11301333Y-11291571D01*
X11310857Y-11329667D01*
X11310857Y-11377286D01*
X11301333Y-11415381D01*
X11291809Y-11434428D01*
X11282286Y-11443952D01*
X11263238Y-11453476D01*
X11244190Y-11453476D01*
X11225143Y-11443952D01*
X11215619Y-11434428D01*
X11206095Y-11415381D01*
X11196571Y-11377286D01*
X11196571Y-11329667D01*
X11206095Y-11291571D01*
X11215619Y-11272524D01*
X11225143Y-11263000D01*
X11244190Y-11253476D01*
X11482286Y-11320143D02*
X11482286Y-11453476D01*
X11434667Y-11243952D02*
X11387048Y-11386809D01*
X11510857Y-11386809D01*
X11625143Y-11253476D02*
X11644190Y-11253476D01*
X11663238Y-11263000D01*
X11672762Y-11272524D01*
X11682286Y-11291571D01*
X11691809Y-11329667D01*
X11691809Y-11377286D01*
X11682286Y-11415381D01*
X11672762Y-11434428D01*
X11663238Y-11443952D01*
X11644190Y-11453476D01*
X11625143Y-11453476D01*
X11606095Y-11443952D01*
X11596571Y-11434428D01*
X11587048Y-11415381D01*
X11577524Y-11377286D01*
X11577524Y-11329667D01*
X11587048Y-11291571D01*
X11596571Y-11272524D01*
X11606095Y-11263000D01*
X11625143Y-11253476D01*
X11815619Y-11253476D02*
X11834667Y-11253476D01*
X11853714Y-11263000D01*
X11863238Y-11272524D01*
X11872762Y-11291571D01*
X11882286Y-11329667D01*
X11882286Y-11377286D01*
X11872762Y-11415381D01*
X11863238Y-11434428D01*
X11853714Y-11443952D01*
X11834667Y-11453476D01*
X11815619Y-11453476D01*
X11796571Y-11443952D01*
X11787048Y-11434428D01*
X11777524Y-11415381D01*
X11768000Y-11377286D01*
X11768000Y-11329667D01*
X11777524Y-11291571D01*
X11787048Y-11272524D01*
X11796571Y-11263000D01*
X11815619Y-11253476D01*
X11958476Y-11253476D02*
X11958476Y-11291571D01*
X12034667Y-11253476D02*
X12034667Y-11291571D01*
X12329905Y-11529667D02*
X12320381Y-11520143D01*
X12301333Y-11491571D01*
X12291809Y-11472524D01*
X12282286Y-11443952D01*
X12272762Y-11396333D01*
X12272762Y-11358238D01*
X12282286Y-11310619D01*
X12291809Y-11282048D01*
X12301333Y-11263000D01*
X12320381Y-11234428D01*
X12329905Y-11224905D01*
X12491809Y-11320143D02*
X12491809Y-11453476D01*
X12444190Y-11243952D02*
X12396571Y-11386809D01*
X12520381Y-11386809D01*
X12682286Y-11253476D02*
X12644190Y-11253476D01*
X12625143Y-11263000D01*
X12615619Y-11272524D01*
X12596571Y-11301095D01*
X12587048Y-11339190D01*
X12587048Y-11415381D01*
X12596571Y-11434428D01*
X12606095Y-11443952D01*
X12625143Y-11453476D01*
X12663238Y-11453476D01*
X12682286Y-11443952D01*
X12691809Y-11434428D01*
X12701333Y-11415381D01*
X12701333Y-11367762D01*
X12691809Y-11348714D01*
X12682286Y-11339190D01*
X12663238Y-11329667D01*
X12625143Y-11329667D01*
X12606095Y-11339190D01*
X12596571Y-11348714D01*
X12587048Y-11367762D01*
X12939428Y-11453476D02*
X12939428Y-11253476D01*
X13025143Y-11453476D02*
X13025143Y-11348714D01*
X13015619Y-11329667D01*
X12996571Y-11320143D01*
X12968000Y-11320143D01*
X12948952Y-11329667D01*
X12939428Y-11339190D01*
X13148952Y-11453476D02*
X13129905Y-11443952D01*
X13120381Y-11434428D01*
X13110857Y-11415381D01*
X13110857Y-11358238D01*
X13120381Y-11339190D01*
X13129905Y-11329667D01*
X13148952Y-11320143D01*
X13177524Y-11320143D01*
X13196571Y-11329667D01*
X13206095Y-11339190D01*
X13215619Y-11358238D01*
X13215619Y-11415381D01*
X13206095Y-11434428D01*
X13196571Y-11443952D01*
X13177524Y-11453476D01*
X13148952Y-11453476D01*
X13329905Y-11453476D02*
X13310857Y-11443952D01*
X13301333Y-11424905D01*
X13301333Y-11253476D01*
X13482286Y-11443952D02*
X13463238Y-11453476D01*
X13425143Y-11453476D01*
X13406095Y-11443952D01*
X13396571Y-11424905D01*
X13396571Y-11348714D01*
X13406095Y-11329667D01*
X13425143Y-11320143D01*
X13463238Y-11320143D01*
X13482286Y-11329667D01*
X13491809Y-11348714D01*
X13491809Y-11367762D01*
X13396571Y-11386809D01*
X13568000Y-11443952D02*
X13587048Y-11453476D01*
X13625143Y-11453476D01*
X13644190Y-11443952D01*
X13653714Y-11424905D01*
X13653714Y-11415381D01*
X13644190Y-11396333D01*
X13625143Y-11386809D01*
X13596571Y-11386809D01*
X13577524Y-11377286D01*
X13568000Y-11358238D01*
X13568000Y-11348714D01*
X13577524Y-11329667D01*
X13596571Y-11320143D01*
X13625143Y-11320143D01*
X13644190Y-11329667D01*
X13720381Y-11529667D02*
X13729905Y-11520143D01*
X13748952Y-11491571D01*
X13758476Y-11472524D01*
X13768000Y-11443952D01*
X13777524Y-11396333D01*
X13777524Y-11358238D01*
X13768000Y-11310619D01*
X13758476Y-11282048D01*
X13748952Y-11263000D01*
X13729905Y-11234428D01*
X13720381Y-11224905D01*
D17*
X8638000Y-11567000D02*
X8758000Y-11687000D01*
X8758000Y-11567000D02*
X8638000Y-11687000D01*
X8698000Y-11567000D02*
X8698000Y-11687000D01*
X8638000Y-11627000D02*
X8758000Y-11627000D01*
D11*
X9120381Y-11717476D02*
X9006095Y-11717476D01*
X9063238Y-11717476D02*
X9063238Y-11517476D01*
X9044190Y-11546048D01*
X9025143Y-11565095D01*
X9006095Y-11574619D01*
X9206095Y-11698428D02*
X9215619Y-11707952D01*
X9206095Y-11717476D01*
X9196571Y-11707952D01*
X9206095Y-11698428D01*
X9206095Y-11717476D01*
X9291810Y-11536524D02*
X9301333Y-11527000D01*
X9320381Y-11517476D01*
X9368000Y-11517476D01*
X9387048Y-11527000D01*
X9396571Y-11536524D01*
X9406095Y-11555571D01*
X9406095Y-11574619D01*
X9396571Y-11603190D01*
X9282286Y-11717476D01*
X9406095Y-11717476D01*
X9529905Y-11517476D02*
X9548952Y-11517476D01*
X9568000Y-11527000D01*
X9577524Y-11536524D01*
X9587048Y-11555571D01*
X9596571Y-11593667D01*
X9596571Y-11641286D01*
X9587048Y-11679381D01*
X9577524Y-11698428D01*
X9568000Y-11707952D01*
X9548952Y-11717476D01*
X9529905Y-11717476D01*
X9510857Y-11707952D01*
X9501333Y-11698428D01*
X9491810Y-11679381D01*
X9482286Y-11641286D01*
X9482286Y-11593667D01*
X9491810Y-11555571D01*
X9501333Y-11536524D01*
X9510857Y-11527000D01*
X9529905Y-11517476D01*
X9720381Y-11517476D02*
X9739429Y-11517476D01*
X9758476Y-11527000D01*
X9768000Y-11536524D01*
X9777524Y-11555571D01*
X9787048Y-11593667D01*
X9787048Y-11641286D01*
X9777524Y-11679381D01*
X9768000Y-11698428D01*
X9758476Y-11707952D01*
X9739429Y-11717476D01*
X9720381Y-11717476D01*
X9701333Y-11707952D01*
X9691810Y-11698428D01*
X9682286Y-11679381D01*
X9672762Y-11641286D01*
X9672762Y-11593667D01*
X9682286Y-11555571D01*
X9691810Y-11536524D01*
X9701333Y-11527000D01*
X9720381Y-11517476D01*
X9872762Y-11717476D02*
X9872762Y-11584143D01*
X9872762Y-11603190D02*
X9882286Y-11593667D01*
X9901333Y-11584143D01*
X9929905Y-11584143D01*
X9948952Y-11593667D01*
X9958476Y-11612714D01*
X9958476Y-11717476D01*
X9958476Y-11612714D02*
X9968000Y-11593667D01*
X9987048Y-11584143D01*
X10015619Y-11584143D01*
X10034667Y-11593667D01*
X10044190Y-11612714D01*
X10044190Y-11717476D01*
X10139429Y-11717476D02*
X10139429Y-11584143D01*
X10139429Y-11603190D02*
X10148952Y-11593667D01*
X10168000Y-11584143D01*
X10196571Y-11584143D01*
X10215619Y-11593667D01*
X10225143Y-11612714D01*
X10225143Y-11717476D01*
X10225143Y-11612714D02*
X10234667Y-11593667D01*
X10253714Y-11584143D01*
X10282286Y-11584143D01*
X10301333Y-11593667D01*
X10310857Y-11612714D01*
X10310857Y-11717476D01*
X10701333Y-11507952D02*
X10529905Y-11765095D01*
X10958476Y-11517476D02*
X10977524Y-11517476D01*
X10996571Y-11527000D01*
X11006095Y-11536524D01*
X11015619Y-11555571D01*
X11025143Y-11593667D01*
X11025143Y-11641286D01*
X11015619Y-11679381D01*
X11006095Y-11698428D01*
X10996571Y-11707952D01*
X10977524Y-11717476D01*
X10958476Y-11717476D01*
X10939429Y-11707952D01*
X10929905Y-11698428D01*
X10920381Y-11679381D01*
X10910857Y-11641286D01*
X10910857Y-11593667D01*
X10920381Y-11555571D01*
X10929905Y-11536524D01*
X10939429Y-11527000D01*
X10958476Y-11517476D01*
X11110857Y-11698428D02*
X11120381Y-11707952D01*
X11110857Y-11717476D01*
X11101333Y-11707952D01*
X11110857Y-11698428D01*
X11110857Y-11717476D01*
X11244190Y-11517476D02*
X11263238Y-11517476D01*
X11282286Y-11527000D01*
X11291809Y-11536524D01*
X11301333Y-11555571D01*
X11310857Y-11593667D01*
X11310857Y-11641286D01*
X11301333Y-11679381D01*
X11291809Y-11698428D01*
X11282286Y-11707952D01*
X11263238Y-11717476D01*
X11244190Y-11717476D01*
X11225143Y-11707952D01*
X11215619Y-11698428D01*
X11206095Y-11679381D01*
X11196571Y-11641286D01*
X11196571Y-11593667D01*
X11206095Y-11555571D01*
X11215619Y-11536524D01*
X11225143Y-11527000D01*
X11244190Y-11517476D01*
X11482286Y-11584143D02*
X11482286Y-11717476D01*
X11434667Y-11507952D02*
X11387048Y-11650809D01*
X11510857Y-11650809D01*
X11568000Y-11517476D02*
X11701333Y-11517476D01*
X11615619Y-11717476D01*
X11768000Y-11536524D02*
X11777524Y-11527000D01*
X11796571Y-11517476D01*
X11844190Y-11517476D01*
X11863238Y-11527000D01*
X11872762Y-11536524D01*
X11882286Y-11555571D01*
X11882286Y-11574619D01*
X11872762Y-11603190D01*
X11758476Y-11717476D01*
X11882286Y-11717476D01*
X11958476Y-11517476D02*
X11958476Y-11555571D01*
X12034667Y-11517476D02*
X12034667Y-11555571D01*
X12329905Y-11793667D02*
X12320381Y-11784143D01*
X12301333Y-11755571D01*
X12291809Y-11736524D01*
X12282286Y-11707952D01*
X12272762Y-11660333D01*
X12272762Y-11622238D01*
X12282286Y-11574619D01*
X12291809Y-11546048D01*
X12301333Y-11527000D01*
X12320381Y-11498428D01*
X12329905Y-11488905D01*
X12396571Y-11536524D02*
X12406095Y-11527000D01*
X12425143Y-11517476D01*
X12472762Y-11517476D01*
X12491809Y-11527000D01*
X12501333Y-11536524D01*
X12510857Y-11555571D01*
X12510857Y-11574619D01*
X12501333Y-11603190D01*
X12387048Y-11717476D01*
X12510857Y-11717476D01*
X12748952Y-11717476D02*
X12748952Y-11517476D01*
X12834667Y-11717476D02*
X12834667Y-11612714D01*
X12825143Y-11593667D01*
X12806095Y-11584143D01*
X12777524Y-11584143D01*
X12758476Y-11593667D01*
X12748952Y-11603190D01*
X12958476Y-11717476D02*
X12939428Y-11707952D01*
X12929905Y-11698428D01*
X12920381Y-11679381D01*
X12920381Y-11622238D01*
X12929905Y-11603190D01*
X12939428Y-11593667D01*
X12958476Y-11584143D01*
X12987048Y-11584143D01*
X13006095Y-11593667D01*
X13015619Y-11603190D01*
X13025143Y-11622238D01*
X13025143Y-11679381D01*
X13015619Y-11698428D01*
X13006095Y-11707952D01*
X12987048Y-11717476D01*
X12958476Y-11717476D01*
X13139428Y-11717476D02*
X13120381Y-11707952D01*
X13110857Y-11688905D01*
X13110857Y-11517476D01*
X13291809Y-11707952D02*
X13272762Y-11717476D01*
X13234667Y-11717476D01*
X13215619Y-11707952D01*
X13206095Y-11688905D01*
X13206095Y-11612714D01*
X13215619Y-11593667D01*
X13234667Y-11584143D01*
X13272762Y-11584143D01*
X13291809Y-11593667D01*
X13301333Y-11612714D01*
X13301333Y-11631762D01*
X13206095Y-11650809D01*
X13377524Y-11707952D02*
X13396571Y-11717476D01*
X13434667Y-11717476D01*
X13453714Y-11707952D01*
X13463238Y-11688905D01*
X13463238Y-11679381D01*
X13453714Y-11660333D01*
X13434667Y-11650809D01*
X13406095Y-11650809D01*
X13387048Y-11641286D01*
X13377524Y-11622238D01*
X13377524Y-11612714D01*
X13387048Y-11593667D01*
X13406095Y-11584143D01*
X13434667Y-11584143D01*
X13453714Y-11593667D01*
X13529905Y-11793667D02*
X13539428Y-11784143D01*
X13558476Y-11755571D01*
X13568000Y-11736524D01*
X13577524Y-11707952D01*
X13587048Y-11660333D01*
X13587048Y-11622238D01*
X13577524Y-11574619D01*
X13568000Y-11546048D01*
X13558476Y-11527000D01*
X13539428Y-11498428D01*
X13529905Y-11488905D01*
X8558000Y-11791000D02*
X8758000Y-11991000D01*
X8758000Y-11791000D02*
X8558000Y-11991000D01*
X8728711Y-11961711D02*
X8728711Y-11820289D01*
X8587289Y-11820289D01*
X8587289Y-11961711D01*
X8728711Y-11961711D01*
X8996571Y-11781476D02*
X9120381Y-11781476D01*
X9053714Y-11857667D01*
X9082286Y-11857667D01*
X9101333Y-11867190D01*
X9110857Y-11876714D01*
X9120381Y-11895762D01*
X9120381Y-11943381D01*
X9110857Y-11962428D01*
X9101333Y-11971952D01*
X9082286Y-11981476D01*
X9025143Y-11981476D01*
X9006095Y-11971952D01*
X8996571Y-11962428D01*
X9206095Y-11962428D02*
X9215619Y-11971952D01*
X9206095Y-11981476D01*
X9196571Y-11971952D01*
X9206095Y-11962428D01*
X9206095Y-11981476D01*
X9339429Y-11781476D02*
X9358476Y-11781476D01*
X9377524Y-11791000D01*
X9387048Y-11800524D01*
X9396571Y-11819571D01*
X9406095Y-11857667D01*
X9406095Y-11905286D01*
X9396571Y-11943381D01*
X9387048Y-11962428D01*
X9377524Y-11971952D01*
X9358476Y-11981476D01*
X9339429Y-11981476D01*
X9320381Y-11971952D01*
X9310857Y-11962428D01*
X9301333Y-11943381D01*
X9291810Y-11905286D01*
X9291810Y-11857667D01*
X9301333Y-11819571D01*
X9310857Y-11800524D01*
X9320381Y-11791000D01*
X9339429Y-11781476D01*
X9577524Y-11848143D02*
X9577524Y-11981476D01*
X9529905Y-11771952D02*
X9482286Y-11914809D01*
X9606095Y-11914809D01*
X9710857Y-11867190D02*
X9691810Y-11857667D01*
X9682286Y-11848143D01*
X9672762Y-11829095D01*
X9672762Y-11819571D01*
X9682286Y-11800524D01*
X9691810Y-11791000D01*
X9710857Y-11781476D01*
X9748952Y-11781476D01*
X9768000Y-11791000D01*
X9777524Y-11800524D01*
X9787048Y-11819571D01*
X9787048Y-11829095D01*
X9777524Y-11848143D01*
X9768000Y-11857667D01*
X9748952Y-11867190D01*
X9710857Y-11867190D01*
X9691810Y-11876714D01*
X9682286Y-11886238D01*
X9672762Y-11905286D01*
X9672762Y-11943381D01*
X9682286Y-11962428D01*
X9691810Y-11971952D01*
X9710857Y-11981476D01*
X9748952Y-11981476D01*
X9768000Y-11971952D01*
X9777524Y-11962428D01*
X9787048Y-11943381D01*
X9787048Y-11905286D01*
X9777524Y-11886238D01*
X9768000Y-11876714D01*
X9748952Y-11867190D01*
X9872762Y-11981476D02*
X9872762Y-11848143D01*
X9872762Y-11867190D02*
X9882286Y-11857667D01*
X9901333Y-11848143D01*
X9929905Y-11848143D01*
X9948952Y-11857667D01*
X9958476Y-11876714D01*
X9958476Y-11981476D01*
X9958476Y-11876714D02*
X9968000Y-11857667D01*
X9987048Y-11848143D01*
X10015619Y-11848143D01*
X10034667Y-11857667D01*
X10044190Y-11876714D01*
X10044190Y-11981476D01*
X10139429Y-11981476D02*
X10139429Y-11848143D01*
X10139429Y-11867190D02*
X10148952Y-11857667D01*
X10168000Y-11848143D01*
X10196571Y-11848143D01*
X10215619Y-11857667D01*
X10225143Y-11876714D01*
X10225143Y-11981476D01*
X10225143Y-11876714D02*
X10234667Y-11857667D01*
X10253714Y-11848143D01*
X10282286Y-11848143D01*
X10301333Y-11857667D01*
X10310857Y-11876714D01*
X10310857Y-11981476D01*
X10701333Y-11771952D02*
X10529905Y-12029095D01*
X10958476Y-11781476D02*
X10977524Y-11781476D01*
X10996571Y-11791000D01*
X11006095Y-11800524D01*
X11015619Y-11819571D01*
X11025143Y-11857667D01*
X11025143Y-11905286D01*
X11015619Y-11943381D01*
X11006095Y-11962428D01*
X10996571Y-11971952D01*
X10977524Y-11981476D01*
X10958476Y-11981476D01*
X10939429Y-11971952D01*
X10929905Y-11962428D01*
X10920381Y-11943381D01*
X10910857Y-11905286D01*
X10910857Y-11857667D01*
X10920381Y-11819571D01*
X10929905Y-11800524D01*
X10939429Y-11791000D01*
X10958476Y-11781476D01*
X11110857Y-11962428D02*
X11120381Y-11971952D01*
X11110857Y-11981476D01*
X11101333Y-11971952D01*
X11110857Y-11962428D01*
X11110857Y-11981476D01*
X11310857Y-11981476D02*
X11196571Y-11981476D01*
X11253714Y-11981476D02*
X11253714Y-11781476D01*
X11234667Y-11810048D01*
X11215619Y-11829095D01*
X11196571Y-11838619D01*
X11387048Y-11800524D02*
X11396571Y-11791000D01*
X11415619Y-11781476D01*
X11463238Y-11781476D01*
X11482286Y-11791000D01*
X11491809Y-11800524D01*
X11501333Y-11819571D01*
X11501333Y-11838619D01*
X11491809Y-11867190D01*
X11377524Y-11981476D01*
X11501333Y-11981476D01*
X11625143Y-11781476D02*
X11644190Y-11781476D01*
X11663238Y-11791000D01*
X11672762Y-11800524D01*
X11682286Y-11819571D01*
X11691809Y-11857667D01*
X11691809Y-11905286D01*
X11682286Y-11943381D01*
X11672762Y-11962428D01*
X11663238Y-11971952D01*
X11644190Y-11981476D01*
X11625143Y-11981476D01*
X11606095Y-11971952D01*
X11596571Y-11962428D01*
X11587048Y-11943381D01*
X11577524Y-11905286D01*
X11577524Y-11857667D01*
X11587048Y-11819571D01*
X11596571Y-11800524D01*
X11606095Y-11791000D01*
X11625143Y-11781476D01*
X11815619Y-11781476D02*
X11834667Y-11781476D01*
X11853714Y-11791000D01*
X11863238Y-11800524D01*
X11872762Y-11819571D01*
X11882286Y-11857667D01*
X11882286Y-11905286D01*
X11872762Y-11943381D01*
X11863238Y-11962428D01*
X11853714Y-11971952D01*
X11834667Y-11981476D01*
X11815619Y-11981476D01*
X11796571Y-11971952D01*
X11787048Y-11962428D01*
X11777524Y-11943381D01*
X11768000Y-11905286D01*
X11768000Y-11857667D01*
X11777524Y-11819571D01*
X11787048Y-11800524D01*
X11796571Y-11791000D01*
X11815619Y-11781476D01*
X11958476Y-11781476D02*
X11958476Y-11819571D01*
X12034667Y-11781476D02*
X12034667Y-11819571D01*
X12329905Y-12057667D02*
X12320381Y-12048143D01*
X12301333Y-12019571D01*
X12291809Y-12000524D01*
X12282286Y-11971952D01*
X12272762Y-11924333D01*
X12272762Y-11886238D01*
X12282286Y-11838619D01*
X12291809Y-11810048D01*
X12301333Y-11791000D01*
X12320381Y-11762428D01*
X12329905Y-11752905D01*
X12396571Y-11800524D02*
X12406095Y-11791000D01*
X12425143Y-11781476D01*
X12472762Y-11781476D01*
X12491809Y-11791000D01*
X12501333Y-11800524D01*
X12510857Y-11819571D01*
X12510857Y-11838619D01*
X12501333Y-11867190D01*
X12387048Y-11981476D01*
X12510857Y-11981476D01*
X12748952Y-11981476D02*
X12748952Y-11781476D01*
X12834667Y-11981476D02*
X12834667Y-11876714D01*
X12825143Y-11857667D01*
X12806095Y-11848143D01*
X12777524Y-11848143D01*
X12758476Y-11857667D01*
X12748952Y-11867190D01*
X12958476Y-11981476D02*
X12939428Y-11971952D01*
X12929905Y-11962428D01*
X12920381Y-11943381D01*
X12920381Y-11886238D01*
X12929905Y-11867190D01*
X12939428Y-11857667D01*
X12958476Y-11848143D01*
X12987048Y-11848143D01*
X13006095Y-11857667D01*
X13015619Y-11867190D01*
X13025143Y-11886238D01*
X13025143Y-11943381D01*
X13015619Y-11962428D01*
X13006095Y-11971952D01*
X12987048Y-11981476D01*
X12958476Y-11981476D01*
X13139428Y-11981476D02*
X13120381Y-11971952D01*
X13110857Y-11952905D01*
X13110857Y-11781476D01*
X13291809Y-11971952D02*
X13272762Y-11981476D01*
X13234667Y-11981476D01*
X13215619Y-11971952D01*
X13206095Y-11952905D01*
X13206095Y-11876714D01*
X13215619Y-11857667D01*
X13234667Y-11848143D01*
X13272762Y-11848143D01*
X13291809Y-11857667D01*
X13301333Y-11876714D01*
X13301333Y-11895762D01*
X13206095Y-11914809D01*
X13377524Y-11971952D02*
X13396571Y-11981476D01*
X13434667Y-11981476D01*
X13453714Y-11971952D01*
X13463238Y-11952905D01*
X13463238Y-11943381D01*
X13453714Y-11924333D01*
X13434667Y-11914809D01*
X13406095Y-11914809D01*
X13387048Y-11905286D01*
X13377524Y-11886238D01*
X13377524Y-11876714D01*
X13387048Y-11857667D01*
X13406095Y-11848143D01*
X13434667Y-11848143D01*
X13453714Y-11857667D01*
X13529905Y-12057667D02*
X13539428Y-12048143D01*
X13558476Y-12019571D01*
X13568000Y-12000524D01*
X13577524Y-11971952D01*
X13587048Y-11924333D01*
X13587048Y-11886238D01*
X13577524Y-11838619D01*
X13568000Y-11810048D01*
X13558476Y-11791000D01*
X13539428Y-11762428D01*
X13529905Y-11752905D01*
M02*
