G04 #@! TF.GenerationSoftware,KiCad,Pcbnew,6.0.5*
G04 #@! TF.CreationDate,2022-05-12T16:14:40+02:00*
G04 #@! TF.ProjectId,active3-rpi-hub75-adapter,61637469-7665-4332-9d72-70692d687562,rev?*
G04 #@! TF.SameCoordinates,Original*
G04 #@! TF.FileFunction,Legend,Bot*
G04 #@! TF.FilePolarity,Positive*
%FSLAX46Y46*%
G04 Gerber Fmt 4.6, Leading zero omitted, Abs format (unit mm)*
G04 Created by KiCad (PCBNEW 6.0.5) date 2022-05-12 16:14:40*
%MOMM*%
%LPD*%
G01*
G04 APERTURE LIST*
G04 Aperture macros list*
%AMRoundRect*
0 Rectangle with rounded corners*
0 $1 Rounding radius*
0 $2 $3 $4 $5 $6 $7 $8 $9 X,Y pos of 4 corners*
0 Add a 4 corners polygon primitive as box body*
4,1,4,$2,$3,$4,$5,$6,$7,$8,$9,$2,$3,0*
0 Add four circle primitives for the rounded corners*
1,1,$1+$1,$2,$3*
1,1,$1+$1,$4,$5*
1,1,$1+$1,$6,$7*
1,1,$1+$1,$8,$9*
0 Add four rect primitives between the rounded corners*
20,1,$1+$1,$2,$3,$4,$5,0*
20,1,$1+$1,$4,$5,$6,$7,0*
20,1,$1+$1,$6,$7,$8,$9,0*
20,1,$1+$1,$8,$9,$2,$3,0*%
G04 Aperture macros list end*
%ADD10R,1.727200X1.727200*%
%ADD11O,1.727200X1.727200*%
%ADD12RoundRect,0.250000X0.600000X-0.600000X0.600000X0.600000X-0.600000X0.600000X-0.600000X-0.600000X0*%
%ADD13C,1.700000*%
%ADD14C,4.064000*%
%ADD15R,1.600000X1.600000*%
%ADD16C,1.600000*%
%ADD17O,4.000000X2.200000*%
%ADD18R,2.032000X2.032000*%
%ADD19C,2.032000*%
%ADD20O,2.032000X2.032000*%
%ADD21RoundRect,0.250000X0.725000X-0.600000X0.725000X0.600000X-0.725000X0.600000X-0.725000X-0.600000X0*%
%ADD22O,1.950000X1.700000*%
%ADD23RoundRect,0.250000X0.600000X0.750000X-0.600000X0.750000X-0.600000X-0.750000X0.600000X-0.750000X0*%
%ADD24O,1.700000X2.000000*%
%ADD25O,1.600000X1.600000*%
G04 APERTURE END LIST*
%LPC*%
D10*
X156210000Y-40640000D03*
D11*
X156210000Y-43180000D03*
X153670000Y-40640000D03*
X153670000Y-43180000D03*
X151130000Y-40640000D03*
X151130000Y-43180000D03*
X148590000Y-40640000D03*
X148590000Y-43180000D03*
X146050000Y-40640000D03*
X146050000Y-43180000D03*
X143510000Y-40640000D03*
X143510000Y-43180000D03*
X140970000Y-40640000D03*
X140970000Y-43180000D03*
X138430000Y-40640000D03*
X138430000Y-43180000D03*
X135890000Y-40640000D03*
X135890000Y-43180000D03*
X133350000Y-40640000D03*
X133350000Y-43180000D03*
X130810000Y-40640000D03*
X130810000Y-43180000D03*
X128270000Y-40640000D03*
X128270000Y-43180000D03*
X125730000Y-40640000D03*
X125730000Y-43180000D03*
X123190000Y-40640000D03*
X123190000Y-43180000D03*
X120650000Y-40640000D03*
X120650000Y-43180000D03*
X118110000Y-40640000D03*
X118110000Y-43180000D03*
X115570000Y-40640000D03*
X115570000Y-43180000D03*
X113030000Y-40640000D03*
X113030000Y-43180000D03*
X110490000Y-40640000D03*
X110490000Y-43180000D03*
X107950000Y-40640000D03*
X107950000Y-43180000D03*
D12*
X110490000Y-67056000D03*
D13*
X110490000Y-64516000D03*
X113030000Y-67056000D03*
X113030000Y-64516000D03*
X115570000Y-67056000D03*
X115570000Y-64516000D03*
X118110000Y-67056000D03*
X118110000Y-64516000D03*
X120650000Y-67056000D03*
X120650000Y-64516000D03*
X123190000Y-67056000D03*
X123190000Y-64516000D03*
X125730000Y-67056000D03*
X125730000Y-64516000D03*
X128270000Y-67056000D03*
X128270000Y-64516000D03*
D12*
X139700000Y-67310000D03*
D13*
X139700000Y-64770000D03*
X142240000Y-67310000D03*
X142240000Y-64770000D03*
X144780000Y-67310000D03*
X144780000Y-64770000D03*
X147320000Y-67310000D03*
X147320000Y-64770000D03*
X149860000Y-67310000D03*
X149860000Y-64770000D03*
X152400000Y-67310000D03*
X152400000Y-64770000D03*
X154940000Y-67310000D03*
X154940000Y-64770000D03*
X157480000Y-67310000D03*
X157480000Y-64770000D03*
D14*
X103080000Y-41910000D03*
X161080000Y-41910000D03*
D15*
X99060000Y-50077400D03*
D16*
X99060000Y-47577400D03*
D17*
X92080000Y-53975000D03*
X92080000Y-57785000D03*
D18*
X90805000Y-62865000D03*
X93345000Y-62865000D03*
D19*
X90805000Y-65405000D03*
D20*
X93345000Y-65405000D03*
D18*
X90805000Y-67945000D03*
X93345000Y-67945000D03*
D21*
X158115000Y-84455000D03*
D22*
X158115000Y-81955000D03*
X158115000Y-79455000D03*
D23*
X109220000Y-50165000D03*
D24*
X106720000Y-50165000D03*
D15*
X150495000Y-74940000D03*
D25*
X147955000Y-74940000D03*
X145415000Y-74940000D03*
X142875000Y-74940000D03*
X140335000Y-74940000D03*
X137795000Y-74940000D03*
X135255000Y-74940000D03*
X132715000Y-74940000D03*
X130175000Y-74940000D03*
X127635000Y-74940000D03*
X125095000Y-74940000D03*
X122555000Y-74940000D03*
X120015000Y-74940000D03*
X117475000Y-74940000D03*
X114935000Y-74940000D03*
X114935000Y-90180000D03*
X117475000Y-90180000D03*
X120015000Y-90180000D03*
X122555000Y-90180000D03*
X125095000Y-90180000D03*
X127635000Y-90180000D03*
X130175000Y-90180000D03*
X132715000Y-90180000D03*
X135255000Y-90180000D03*
X137795000Y-90180000D03*
X140335000Y-90180000D03*
X142875000Y-90180000D03*
X145415000Y-90180000D03*
X147955000Y-90180000D03*
X150495000Y-90180000D03*
D21*
X99805000Y-65960000D03*
D22*
X99805000Y-63460000D03*
X99805000Y-60960000D03*
X99805000Y-58460000D03*
X99805000Y-55960000D03*
M02*
